0
SECTION
2
HEADER
9
$INSUNITS
70
4
0
ENDSEC
0
SECTION
2
TABLES
0
TABLE
2
LTYPE
0
LTYPE
72
65
70
64
2
CONTINUOUS
3
______
73
0
40
0
0
ENDTAB
0
TABLE
2
LAYER
0
ENDTAB
0
ENDSEC
0
SECTION
2
ENTITIES
0
LINE
8
front_outsideCutPath
10
0
20
81
11
0
21
55.86205
0
LINE
8
front_outsideCutPath
10
0
20
55.86205
11
3
21
55.86205
0
LINE
8
front_outsideCutPath
10
3
20
55.86205
11
3
21
28.13795
0
LINE
8
front_outsideCutPath
10
3
20
28.13795
11
0
21
28.13795
0
LINE
8
front_outsideCutPath
10
0
20
28.13795
11
0
21
3
0
LINE
8
front_outsideCutPath
10
0
20
3
11
28.91385
21
3
0
LINE
8
front_outsideCutPath
10
28.91385
20
3
11
28.91385
21
6
0
LINE
8
front_outsideCutPath
10
28.91385
20
6
11
56.63795
21
6
0
LINE
8
front_outsideCutPath
10
56.63795
20
6
11
56.63795
21
3
0
LINE
8
front_outsideCutPath
10
56.63795
20
3
11
84.36205
21
3
0
LINE
8
front_outsideCutPath
10
84.36205
20
3
11
84.36205
21
6
0
LINE
8
front_outsideCutPath
10
84.36205
20
6
11
112.08615
21
6
0
LINE
8
front_outsideCutPath
10
112.08615
20
6
11
112.08615
21
3
0
LINE
8
front_outsideCutPath
10
112.08615
20
3
11
141
21
3
0
LINE
8
front_outsideCutPath
10
141
20
3
11
141
21
28.13795
0
LINE
8
front_outsideCutPath
10
141
20
28.13795
11
138
21
28.13795
0
LINE
8
front_outsideCutPath
10
138
20
28.13795
11
138
21
55.86205
0
LINE
8
front_outsideCutPath
10
138
20
55.86205
11
141
21
55.86205
0
LINE
8
front_outsideCutPath
10
141
20
55.86205
11
141
21
81
0
LINE
8
front_outsideCutPath
10
141
20
81
11
112.08615
21
81
0
LINE
8
front_outsideCutPath
10
112.08615
20
81
11
112.08615
21
78
0
LINE
8
front_outsideCutPath
10
112.08615
20
78
11
84.36205
21
78
0
LINE
8
front_outsideCutPath
10
84.36205
20
78
11
84.36205
21
81
0
LINE
8
front_outsideCutPath
10
84.36205
20
81
11
56.63795
21
81
0
LINE
8
front_outsideCutPath
10
56.63795
20
81
11
56.63795
21
78
0
LINE
8
front_outsideCutPath
10
56.63795
20
78
11
28.91385
21
78
0
LINE
8
front_outsideCutPath
10
28.91385
20
78
11
28.91385
21
81
0
LINE
8
front_outsideCutPath
10
28.91385
20
81
11
0
21
81
0
LINE
8
front_labelLayer
10
57.5774414
20
44.4567081
11
57.5774414
21
43.4740909
0
LINE
8
front_labelLayer
10
57.5774414
20
43.4740909
11
55.4522461
21
43.4740909
0
LINE
8
front_labelLayer
10
55.4522461
20
43.4740909
11
55.4522461
21
36.1082706
0
LINE
8
front_labelLayer
10
55.4522461
20
36.1082706
11
54.187793
21
36.1082706
0
LINE
8
front_labelLayer
10
54.187793
20
36.1082706
11
54.187793
21
43.4740909
0
LINE
8
front_labelLayer
10
54.187793
20
43.4740909
11
52.6948242
21
43.4740909
0
LINE
8
front_labelLayer
10
52.6948242
20
43.4740909
11
52.6948242
21
44.04538
0
LINE
8
front_labelLayer
10
52.6948242
20
44.04538
11
54.187793
21
44.5024112
0
LINE
8
front_labelLayer
10
54.187793
20
44.5024112
11
54.187793
21
44.9670597
0
LINE
8
front_labelLayer
10
58.4305664
20
47.7778019
11
58.1030273
21
46.7647159
0
LINE
8
front_labelLayer
10
55.4522461
20
44.9975284
11
55.4522461
21
44.4567081
0
LINE
8
front_labelLayer
10
55.4522461
20
44.4567081
11
57.5774414
21
44.4567081
0
ARC
8
front_labelLayer
10
59.3121716
20
45.0259731
40
5.1247172
50
167.5775863
51
180.6586826
0
ARC
8
front_labelLayer
10
56.9023635
20
45.5878025
40
2.650641
50
141.7433758
51
168.2322223
0
ARC
8
front_labelLayer
10
56.5099997
20
45.7925864
40
2.217262
50
98.2551617
51
139.6203261
0
ARC
8
front_labelLayer
10
56.8545042
20
44.2010997
40
3.8433677
50
89.6697042
51
99.9314201
0
ARC
8
front_labelLayer
10
56.8554627
20
43.9726209
40
4.0718377
50
81.5640834
51
89.7017245
0
ARC
8
front_labelLayer
10
56.5692106
20
41.975553
40
6.0893006
50
75.9739884
51
81.6564923
0
ARC
8
front_labelLayer
10
56.0779286
20
39.937846
40
8.1853413
50
73.2963909
51
76.0945863
0
ARC
8
front_labelLayer
10
56.2016822
20
40.9263858
40
6.1401313
50
71.9613363
51
76.591843
0
ARC
8
front_labelLayer
10
56.678036
20
42.9471316
40
4.0640086
50
76.5183374
51
83.0216743
0
ARC
8
front_labelLayer
10
56.8439713
20
44.2815422
40
2.7193241
50
83.0761076
51
89.7927301
0
ARC
8
front_labelLayer
10
56.8385091
20
45.2956655
40
1.7052519
50
89.4859374
51
103.4197671
0
ARC
8
front_labelLayer
10
56.6847677
20
45.8863208
40
1.0951142
50
102.7677307
51
144.338032
0
ARC
8
front_labelLayer
10
56.9944864
20
45.6870443
40
1.4630491
50
145.0688262
51
162.1802101
0
ARC
8
front_labelLayer
10
58.0564272
20
45.3297524
40
2.5834265
50
161.8437474
51
171.7846892
0
ARC
8
front_labelLayer
10
59.7884246
20
45.069609
40
4.3348344
50
171.6527404
51
178.4383793
0
ARC
8
front_labelLayer
10
61.4223691
20
44.9999365
40
5.9701236
50
178.197317
51
180.0231108
0
LINE
8
front_labelLayer
10
63.9073242
20
44.5176456
11
63.7321289
21
43.3445987
0
LINE
8
front_labelLayer
10
60.365332
20
40.5871769
11
60.365332
21
36.1082706
0
LINE
8
front_labelLayer
10
60.365332
20
36.1082706
11
59.1008789
21
36.1082706
0
LINE
8
front_labelLayer
10
59.1008789
20
36.1082706
11
59.1008789
21
44.4567081
0
LINE
8
front_labelLayer
10
59.1008789
20
44.4567081
11
60.1444336
21
44.4567081
0
LINE
8
front_labelLayer
10
60.1444336
20
44.4567081
11
60.2891602
21
42.9104191
0
LINE
8
front_labelLayer
10
60.2891602
20
42.9104191
11
60.3500977
21
42.9104191
0
ARC
8
front_labelLayer
10
62.9224492
20
38.8041039
40
5.8049625
50
84.9923192
51
90.12808
0
ARC
8
front_labelLayer
10
63.0618561
20
40.3660424
40
4.2368179
50
78.4892009
51
85.0265913
0
ARC
8
front_labelLayer
10
62.520786
20
37.9051377
40
5.5727092
50
77.4453605
51
81.6360709
0
ARC
8
front_labelLayer
10
62.7635707
20
39.5786442
40
3.8816879
50
81.5884511
51
87.1916663
0
ARC
8
front_labelLayer
10
62.816301
20
40.4928758
40
2.9659813
50
87.3437769
51
89.9658969
0
ARC
8
front_labelLayer
10
62.8040537
20
41.2679783
40
2.190923
50
89.6335444
51
137.0880825
0
ARC
8
front_labelLayer
10
63.3416758
20
40.6633915
40
2.997308
50
135.6208344
51
138.8377526
0
ARC
8
front_labelLayer
10
63.2629575
20
40.7402334
40
2.8874745
50
138.9575728
51
174.5422174
0
ARC
8
front_labelLayer
10
64.2033778
20
40.5930884
40
3.8380503
50
173.6907849
51
180.0882489
0
ARC
8
front_labelLayer
10
64.0703915
20
40.8144221
40
4.2701042
50
139.4139388
51
150.6032836
0
ARC
8
front_labelLayer
10
63.3047564
20
41.4704909
40
3.2618267
50
124.2321536
51
139.4161151
0
ARC
8
front_labelLayer
10
62.89538
20
42.0884416
40
2.5206496
50
89.6796642
51
124.4405587
0
ARC
8
front_labelLayer
10
66.143434
20
40.2460759
40
6.5314214
50
349.1761882
51
0.3862547
0
ARC
8
front_labelLayer
10
68.3424144
20
39.8077039
40
4.2892772
50
330.2507011
51
349.4116559
0
ARC
8
front_labelLayer
10
69.0191473
20
39.4559638
40
3.5273299
50
318.1439708
51
329.7566299
0
ARC
8
front_labelLayer
10
69.1412849
20
39.3580827
40
3.3710576
50
278.8959215
51
317.9979124
0
ARC
8
front_labelLayer
10
68.8265761
20
40.865886
40
4.9100056
50
269.7502745
51
279.8033126
0
ARC
8
front_labelLayer
10
68.7755352
20
40.0163351
40
4.0605164
50
253.5437047
51
270.4182457
0
ARC
8
front_labelLayer
10
68.6403696
20
39.4934768
40
3.5208346
50
238.8115597
51
253.2428314
0
ARC
8
front_labelLayer
10
68.5967456
20
39.4057486
40
3.4232046
50
207.7946944
51
238.6757951
0
ARC
8
front_labelLayer
10
69.2228213
20
39.7891752
40
4.1561087
50
205.656021
51
208.4460421
0
ARC
8
front_labelLayer
10
69.7048415
20
39.9900088
40
4.6776427
50
188.9102365
51
205.3171466
0
ARC
8
front_labelLayer
10
71.3296961
20
40.2652065
40
6.3255457
50
179.7744587
51
189.0932776
0
ARC
8
front_labelLayer
10
71.5693864
20
40.3345748
40
6.5653378
50
169.2442961
51
180.3880779
0
ARC
8
front_labelLayer
10
69.3398504
20
40.7752733
40
4.2927599
50
150.7111521
51
169.469543
0
ARC
8
front_labelLayer
10
68.6281223
20
41.1407698
40
3.4933341
50
138.1759715
51
150.2287255
0
ARC
8
front_labelLayer
10
68.5097201
20
41.2316291
40
3.344531
50
99.1759412
51
137.9832811
0
ARC
8
front_labelLayer
10
68.8355805
20
39.6980889
40
4.9110165
50
89.7326476
51
100.0759764
0
ARC
8
front_labelLayer
10
68.9007068
20
40.3603783
40
4.2488832
50
73.5222658
51
90.5692167
0
ARC
8
front_labelLayer
10
69.1498799
20
41.2656866
40
3.310128
50
41.1445605
51
73.2133888
0
ARC
8
front_labelLayer
10
68.6742318
20
40.8568724
40
3.937303
50
13.5014345
51
41.070351
0
ARC
8
front_labelLayer
10
66.8365674
20
40.3759797
40
5.8365829
50
1.12772
51
13.8800048
0
ARC
8
front_labelLayer
10
65.2535852
20
40.2911557
40
7.4211219
50
359.9918999
51
1.5419562
0
ARC
8
front_labelLayer
10
72.7174377
20
40.2572449
40
6.4031665
50
179.7059517
51
187.9160664
0
ARC
8
front_labelLayer
10
70.3689532
20
39.9198884
40
4.0306135
50
187.7639187
51
200.0976864
0
ARC
8
front_labelLayer
10
69.0751838
20
39.445849
40
2.652734
50
200.0845788
51
216.9131646
0
ARC
8
front_labelLayer
10
68.6027469
20
39.1085064
40
2.0724367
50
217.3009475
51
261.7099069
0
ARC
8
front_labelLayer
10
68.8220704
20
40.1551056
40
3.140419
50
260.5033422
51
270.2476565
0
ARC
8
front_labelLayer
10
68.8639313
20
39.9515823
40
2.9370026
50
269.4481656
51
284.7255577
0
ARC
8
front_labelLayer
10
69.0964367
20
39.0892933
40
2.0439433
50
284.566227
51
322.633392
0
ARC
8
front_labelLayer
10
68.5528286
20
39.4820267
40
2.7143992
50
323.0089181
51
342.6390464
0
ARC
8
front_labelLayer
10
66.997991
20
39.9901919
40
4.350087
50
342.3615743
51
353.7537631
0
ARC
8
front_labelLayer
10
64.7041126
20
40.2666905
40
6.6604793
50
353.5362993
51
0.2014337
0
ARC
8
front_labelLayer
10
65.0555534
20
40.322309
40
6.3090796
50
359.7075526
51
7.8972666
0
ARC
8
front_labelLayer
10
67.3661117
20
40.6535487
40
3.9749372
50
7.7439895
51
20.0690206
0
ARC
8
front_labelLayer
10
68.653645
20
41.1260248
40
2.6034527
50
20.0257126
51
37.43504
0
ARC
8
front_labelLayer
10
69.0808425
20
41.4291576
40
2.0800633
50
37.9577574
51
80.4006287
0
ARC
8
front_labelLayer
10
68.838081
20
40.3459759
40
3.1891014
50
79.3453624
51
90.3174788
0
ARC
8
front_labelLayer
10
68.7931308
20
40.5258992
40
3.0092529
50
89.480598
51
103.8805
0
ARC
8
front_labelLayer
10
68.5402763
20
41.4887707
40
2.0138918
50
103.4685343
51
142.3118919
0
ARC
8
front_labelLayer
10
69.0318441
20
41.1430643
40
2.6143853
50
142.9025567
51
162.3749561
0
ARC
8
front_labelLayer
10
70.5807842
20
40.6268839
40
4.24697
50
162.0653108
51
173.1674807
0
ARC
8
front_labelLayer
10
72.9959589
20
40.3188407
40
6.6816652
50
173.0085997
51
180.246398
0
LINE
8
front_labelLayer
10
81.8686523
20
36.1082706
11
80.6041992
21
36.1082706
0
LINE
8
front_labelLayer
10
80.6041992
20
36.1082706
11
80.6041992
21
41.5088566
0
LINE
8
front_labelLayer
10
76.1557617
20
40.4881534
11
76.1557617
21
36.1082706
0
LINE
8
front_labelLayer
10
76.1557617
20
36.1082706
11
74.8913086
21
36.1082706
0
LINE
8
front_labelLayer
10
74.8913086
20
36.1082706
11
74.8913086
21
44.4567081
0
LINE
8
front_labelLayer
10
74.8913086
20
44.4567081
11
75.9196289
21
44.4567081
0
LINE
8
front_labelLayer
10
75.9196289
20
44.4567081
11
76.125293
21
43.31413
0
LINE
8
front_labelLayer
10
76.125293
20
43.31413
11
76.1862305
21
43.31413
0
LINE
8
front_labelLayer
10
81.8686523
20
41.5545597
11
81.8686523
21
36.1082706
0
ARC
8
front_labelLayer
10
77.0299622
20
41.5293536
40
3.5742958
50
359.6714317
51
8.6877315
0
ARC
8
front_labelLayer
10
78.3547013
20
41.7394489
40
2.2330347
50
8.4931386
51
22.657992
0
ARC
8
front_labelLayer
10
79.0277557
20
42.0191492
40
1.5041777
50
22.702454
51
42.3419566
0
ARC
8
front_labelLayer
10
79.103412
20
42.0531828
40
1.4255674
50
43.3790782
51
71.5386107
0
ARC
8
front_labelLayer
10
78.8204997
20
41.2626503
40
2.2650771
50
71.0828243
51
84.3690951
0
ARC
8
front_labelLayer
10
78.6935043
20
40.1828865
40
3.3521537
50
84.0197868
51
90.1510328
0
ARC
8
front_labelLayer
10
78.6575044
20
39.7081994
40
3.8269254
50
89.5933105
51
100.3717684
0
ARC
8
front_labelLayer
10
78.3870584
20
41.1271453
40
2.3824984
50
100.117627
51
118.1602515
0
ARC
8
front_labelLayer
10
78.1145178
20
41.6615747
40
1.782746
50
118.5439287
51
139.1926827
0
ARC
8
front_labelLayer
10
78.3521635
20
41.5021125
40
2.0671238
50
140.1519458
51
160.3146268
0
ARC
8
front_labelLayer
10
79.7871905
20
40.9646132
40
3.5994137
50
159.953441
51
171.3801064
0
ARC
8
front_labelLayer
10
82.1313296
20
40.5878022
40
5.973588
50
171.1765898
51
178.3217767
0
ARC
8
front_labelLayer
10
84.2562976
20
40.4914921
40
8.1005367
50
178.0810351
51
180.023615
0
ARC
8
front_labelLayer
10
78.3492707
20
41.9442049
40
2.5603589
50
116.944297
51
147.6525649
0
ARC
8
front_labelLayer
10
78.6158413
20
41.498327
40
3.0788309
50
115.8072361
51
117.6067323
0
ARC
8
front_labelLayer
10
78.7520146
20
41.1807941
40
3.4240124
50
94.3226765
51
115.5454479
0
ARC
8
front_labelLayer
10
78.8339682
20
40.4687666
40
4.1402863
50
89.957882
51
94.7108883
0
ARC
8
front_labelLayer
10
78.8678401
20
39.6168699
40
4.9922771
50
80.5585264
51
90.3538159
0
ARC
8
front_labelLayer
10
79.1798283
20
41.4240147
40
3.1584544
50
65.1094283
51
80.7638364
0
ARC
8
front_labelLayer
10
79.544524
20
42.2318066
40
2.2722184
50
46.5584536
51
64.8782387
0
ARC
8
front_labelLayer
10
79.5737136
20
42.3159535
40
2.1913569
50
19.3848684
51
45.5997137
0
ARC
8
front_labelLayer
10
78.3059375
20
41.8402623
40
3.545261
50
6.9633689
51
19.8363254
0
ARC
8
front_labelLayer
10
76.3506351
20
41.5773704
40
5.5180643
50
359.7631488
51
7.2115533
0
LINE
8
front_labelLayer
10
88.3051758
20
37.1518253
11
88.3051758
21
36.1844425
0
LINE
8
front_labelLayer
10
84.5575195
20
38.5076847
11
84.5575195
21
43.4740909
0
LINE
8
front_labelLayer
10
84.5575195
20
43.4740909
11
83.3616211
21
43.4740909
0
LINE
8
front_labelLayer
10
83.3616211
20
43.4740909
11
83.3616211
21
44.0834659
0
LINE
8
front_labelLayer
10
83.3616211
20
44.0834659
11
84.5575195
21
44.6090519
0
LINE
8
front_labelLayer
10
84.5575195
20
44.6090519
11
85.0907227
21
46.3914737
0
LINE
8
front_labelLayer
10
85.0907227
20
46.3914737
11
85.8219727
21
46.3914737
0
LINE
8
front_labelLayer
10
85.8219727
20
46.3914737
11
85.8219727
21
44.4567081
0
LINE
8
front_labelLayer
10
85.8219727
20
44.4567081
11
88.2442383
21
44.4567081
0
LINE
8
front_labelLayer
10
88.2442383
20
44.4567081
11
88.2442383
21
43.4740909
0
LINE
8
front_labelLayer
10
88.2442383
20
43.4740909
11
85.8219727
21
43.4740909
0
LINE
8
front_labelLayer
10
85.8219727
20
43.4740909
11
85.8219727
21
38.561005
0
ARC
8
front_labelLayer
10
87.1712704
20
41.1520891
40
4.1526166
50
269.880337
51
278.3028561
0
ARC
8
front_labelLayer
10
87.2112979
20
40.8258466
40
3.8240208
50
278.4152797
51
279.008375
0
ARC
8
front_labelLayer
10
86.7448788
20
43.805581
40
6.8400355
50
278.9589761
51
280.5104538
0
ARC
8
front_labelLayer
10
87.188916
20
41.4230501
40
4.4164811
50
280.4847954
51
282.6268768
0
ARC
8
front_labelLayer
10
87.5783172
20
39.6930639
40
2.6432129
50
282.5877173
51
285.5793866
0
ARC
8
front_labelLayer
10
87.7741902
20
38.9727214
40
1.8967361
50
285.7240281
51
286.2570409
0
ARC
8
front_labelLayer
10
87.7735716
20
37.3088144
40
1.2437102
50
287.9887604
51
295.3048329
0
ARC
8
front_labelLayer
10
87.4735667
20
38.2164767
40
2.1996599
50
283.3070226
51
288.1196769
0
ARC
8
front_labelLayer
10
87.1566664
20
39.5384036
40
3.5590369
50
280.0070622
51
283.3734315
0
ARC
8
front_labelLayer
10
86.9446704
20
40.6888339
40
4.7288118
50
279.1863881
51
280.1144255
0
ARC
8
front_labelLayer
10
86.8145099
20
41.4292267
40
5.4804977
50
275.5260737
51
279.2939631
0
ARC
8
front_labelLayer
10
86.9611809
20
39.8972724
40
3.941539
50
270.8932477
51
275.5483992
0
ARC
8
front_labelLayer
10
86.9796069
20
39.1961579
40
3.2402311
50
270.0031511
51
270.760738
0
ARC
8
front_labelLayer
10
86.9287606
20
39.2580993
40
3.3025666
50
253.7847946
51
270.8852524
0
ARC
8
front_labelLayer
10
86.5374942
20
37.9237321
40
1.912024
50
190.381762
51
253.877242
0
ARC
8
front_labelLayer
10
88.5317795
20
38.4629506
40
3.9745117
50
179.3551082
51
192.8477492
0
ARC
8
front_labelLayer
10
88.3681147
20
38.5450816
40
2.5461918
50
179.6416802
51
189.7506035
0
ARC
8
front_labelLayer
10
87.4692556
20
38.384758
40
1.6331754
50
189.5479346
51
205.7873718
0
ARC
8
front_labelLayer
10
87.0998674
20
38.2144218
40
1.2264929
50
206.1294578
51
221.4084079
0
ARC
8
front_labelLayer
10
87.0584484
20
38.1829935
40
1.174647
50
221.5949173
51
262.3505168
0
ARC
8
front_labelLayer
10
87.1569557
20
38.6895659
40
1.6900938
50
261.3266669
51
270.1912666
0
LINE
8
left_outsideCutPath
10
147
20
81
11
147
21
55.86205
0
LINE
8
left_outsideCutPath
10
147
20
55.86205
11
144
21
55.86205
0
LINE
8
left_outsideCutPath
10
144
20
55.86205
11
144
21
28.13795
0
LINE
8
left_outsideCutPath
10
144
20
28.13795
11
147
21
28.13795
0
LINE
8
left_outsideCutPath
10
147
20
28.13795
11
147
21
3
0
LINE
8
left_outsideCutPath
10
147
20
3
11
163.46565
21
3
0
LINE
8
left_outsideCutPath
10
163.46565
20
3
11
163.46565
21
6
0
LINE
8
left_outsideCutPath
10
163.46565
20
6
11
191.18975
21
6
0
LINE
8
left_outsideCutPath
10
191.18975
20
6
11
191.18975
21
3
0
LINE
8
left_outsideCutPath
10
191.18975
20
3
11
218.91385
21
3
0
LINE
8
left_outsideCutPath
10
218.91385
20
3
11
218.91385
21
6
0
LINE
8
left_outsideCutPath
10
218.91385
20
6
11
246.63795
21
6
0
LINE
8
left_outsideCutPath
10
246.63795
20
6
11
246.63795
21
3
0
LINE
8
left_outsideCutPath
10
246.63795
20
3
11
274.36205
21
3
0
LINE
8
left_outsideCutPath
10
274.36205
20
3
11
274.36205
21
6
0
LINE
8
left_outsideCutPath
10
274.36205
20
6
11
302.08615
21
6
0
LINE
8
left_outsideCutPath
10
302.08615
20
6
11
302.08615
21
3
0
LINE
8
left_outsideCutPath
10
302.08615
20
3
11
329.81025
21
3
0
LINE
8
left_outsideCutPath
10
329.81025
20
3
11
329.81025
21
6
0
LINE
8
left_outsideCutPath
10
329.81025
20
6
11
357.53435
21
6
0
LINE
8
left_outsideCutPath
10
357.53435
20
6
11
357.53435
21
3
0
LINE
8
left_outsideCutPath
10
357.53435
20
3
11
374
21
3
0
LINE
8
left_outsideCutPath
10
374
20
3
11
374
21
28.13795
0
LINE
8
left_outsideCutPath
10
374
20
28.13795
11
377
21
28.13795
0
LINE
8
left_outsideCutPath
10
377
20
28.13795
11
377
21
55.86205
0
LINE
8
left_outsideCutPath
10
377
20
55.86205
11
374
21
55.86205
0
LINE
8
left_outsideCutPath
10
374
20
55.86205
11
374
21
81
0
LINE
8
left_outsideCutPath
10
374
20
81
11
357.53435
21
81
0
LINE
8
left_outsideCutPath
10
357.53435
20
81
11
357.53435
21
78
0
LINE
8
left_outsideCutPath
10
357.53435
20
78
11
329.81025
21
78
0
LINE
8
left_outsideCutPath
10
329.81025
20
78
11
329.81025
21
81
0
LINE
8
left_outsideCutPath
10
329.81025
20
81
11
302.08615
21
81
0
LINE
8
left_outsideCutPath
10
302.08615
20
81
11
302.08615
21
78
0
LINE
8
left_outsideCutPath
10
302.08615
20
78
11
274.36205
21
78
0
LINE
8
left_outsideCutPath
10
274.36205
20
78
11
274.36205
21
81
0
LINE
8
left_outsideCutPath
10
274.36205
20
81
11
246.63795
21
81
0
LINE
8
left_outsideCutPath
10
246.63795
20
81
11
246.63795
21
78
0
LINE
8
left_outsideCutPath
10
246.63795
20
78
11
218.91385
21
78
0
LINE
8
left_outsideCutPath
10
218.91385
20
78
11
218.91385
21
81
0
LINE
8
left_outsideCutPath
10
218.91385
20
81
11
191.18975
21
81
0
LINE
8
left_outsideCutPath
10
191.18975
20
81
11
191.18975
21
78
0
LINE
8
left_outsideCutPath
10
191.18975
20
78
11
163.46565
21
78
0
LINE
8
left_outsideCutPath
10
163.46565
20
78
11
163.46565
21
81
0
LINE
8
left_outsideCutPath
10
163.46565
20
81
11
147
21
81
0
LINE
8
left_labelLayer
10
250.852832
20
47.9606144
11
250.852832
21
36.1082706
0
LINE
8
left_labelLayer
10
250.852832
20
36.1082706
11
249.5883789
21
36.1082706
0
LINE
8
left_labelLayer
10
249.5883789
20
36.1082706
11
249.5883789
21
47.9606144
0
LINE
8
left_labelLayer
10
249.5883789
20
47.9606144
11
250.852832
21
47.9606144
0
LINE
8
left_labelLayer
10
260.1305664
20
40.8537784
11
260.1305664
21
40.0539737
0
LINE
8
left_labelLayer
10
260.1305664
20
40.0539737
11
254.3795898
21
40.0539737
0
LINE
8
left_labelLayer
10
259.7725586
20
37.6240909
11
259.7725586
21
36.4967472
0
LINE
8
left_labelLayer
10
254.4100586
20
41.0822941
11
258.774707
21
41.0822941
0
ARC
8
left_labelLayer
10
257.0192633
20
40.8693582
40
4.9136073
50
256.0087963
51
270.4848145
0
ARC
8
left_labelLayer
10
256.6614561
20
39.480276
40
3.4792454
50
223.5465777
51
256.1957005
0
ARC
8
left_labelLayer
10
256.8588423
20
39.6237388
40
3.7212892
50
194.0877281
51
223.0538126
0
ARC
8
left_labelLayer
10
258.66743
20
40.1183208
40
5.5960064
50
181.3574486
51
194.4919927
0
ARC
8
left_labelLayer
10
260.2919906
20
40.2125058
40
7.222557
50
179.9886645
51
181.7991016
0
ARC
8
left_labelLayer
10
259.7088949
20
40.2584734
40
6.6396107
50
168.9539189
51
180.3843445
0
ARC
8
left_labelLayer
10
257.5404384
20
40.700008
40
4.4267672
50
149.4071139
51
169.1853621
0
ARC
8
left_labelLayer
10
256.9362709
20
41.0192213
40
3.7443808
50
140.10563
51
148.9067201
0
ARC
8
left_labelLayer
10
256.5650776
20
41.3614416
40
3.2401919
50
92.4762612
51
140.5386384
0
ARC
8
left_labelLayer
10
256.7304778
20
40.139178
40
4.4698749
50
89.9638148
51
93.9176578
0
ARC
8
left_labelLayer
10
256.7699441
20
40.7569251
40
3.852301
50
74.2125778
51
90.5450096
0
ARC
8
left_labelLayer
10
257.0112258
20
41.6459083
40
2.9312231
50
41.2064664
51
74.0232723
0
ARC
8
left_labelLayer
10
256.5542862
20
41.2504602
40
3.5355102
50
11.599416
51
41.1496093
0
ARC
8
left_labelLayer
10
254.9842579
20
40.8883802
40
5.1464248
50
359.6147712
51
12.0336447
0
ARC
8
left_labelLayer
10
259.4536462
20
40.1553631
40
5.0750692
50
181.1447275
51
190.8006892
0
ARC
8
left_labelLayer
10
257.663195
20
39.8022361
40
3.2501822
50
190.6005505
51
206.0275475
0
ARC
8
left_labelLayer
10
256.8710569
20
39.4277465
40
2.3740788
50
206.2950172
51
222.555813
0
ARC
8
left_labelLayer
10
256.8008694
20
39.3909984
40
2.2976149
50
223.064511
51
258.1401335
0
ARC
8
left_labelLayer
10
257.0802991
20
40.5415812
40
3.4812611
50
257.5311894
51
270.431935
0
ARC
8
left_labelLayer
10
257.0834184
20
43.7386521
40
6.6782731
50
270.1983956
51
292.2090398
0
ARC
8
left_labelLayer
10
256.7624352
20
44.6603507
40
7.6530905
50
291.8255714
51
293.1613182
0
ARC
8
left_labelLayer
10
256.7473775
20
43.4587795
40
7.5908902
50
287.9022729
51
293.486179
0
ARC
8
left_labelLayer
10
257.2980045
20
41.7598882
40
5.8049962
50
281.9936011
51
287.8851263
0
ARC
8
left_labelLayer
10
257.4314574
20
41.280269
40
5.3082045
50
275.9054814
51
281.6603546
0
ARC
8
left_labelLayer
10
257.1643078
20
43.773852
40
7.8160458
50
271.9119698
51
275.9727229
0
ARC
8
left_labelLayer
10
257.0667821
20
46.2578426
40
10.3019175
50
269.9669512
51
271.9931455
0
ARC
8
left_labelLayer
10
256.6938023
20
41.0578508
40
2.4925301
50
89.4422326
51
106.2089706
0
ARC
8
left_labelLayer
10
256.5438502
20
41.6046005
40
1.9256753
50
106.4657136
51
137.9176314
0
ARC
8
left_labelLayer
10
256.9737715
20
41.2270589
40
2.4977955
50
138.0994876
51
160.5866324
0
ARC
8
left_labelLayer
10
258.078875
20
40.8205094
40
3.6752333
50
160.3353323
51
172.5315329
0
ARC
8
left_labelLayer
10
259.1671707
20
40.6461388
40
4.7770648
50
172.1545119
51
174.7614893
0
ARC
8
left_labelLayer
10
254.4659815
20
41.1067723
40
4.3087951
50
359.6745015
51
8.9224619
0
ARC
8
left_labelLayer
10
256.0056128
20
41.3576333
40
2.7489015
50
8.7342032
51
23.277214
0
ARC
8
left_labelLayer
10
256.736534
20
41.6644572
40
1.9562364
50
23.4821207
51
39.7072192
0
ARC
8
left_labelLayer
10
256.9160715
20
41.7988098
40
1.7323187
50
40.0822931
51
80.6243286
0
ARC
8
left_labelLayer
10
256.7312659
20
40.951663
40
2.5986332
50
79.6468594
51
90.2910286
0
LINE
8
left_labelLayer
10
266.0491211
20
44.4567081
11
266.0491211
21
43.4740909
0
LINE
8
left_labelLayer
10
266.0491211
20
43.4740909
11
263.9239258
21
43.4740909
0
LINE
8
left_labelLayer
10
263.9239258
20
43.4740909
11
263.9239258
21
36.1082706
0
LINE
8
left_labelLayer
10
263.9239258
20
36.1082706
11
262.6594727
21
36.1082706
0
LINE
8
left_labelLayer
10
262.6594727
20
36.1082706
11
262.6594727
21
43.4740909
0
LINE
8
left_labelLayer
10
262.6594727
20
43.4740909
11
261.1665039
21
43.4740909
0
LINE
8
left_labelLayer
10
261.1665039
20
43.4740909
11
261.1665039
21
44.04538
0
LINE
8
left_labelLayer
10
261.1665039
20
44.04538
11
262.6594727
21
44.5024112
0
LINE
8
left_labelLayer
10
262.6594727
20
44.5024112
11
262.6594727
21
44.9670597
0
LINE
8
left_labelLayer
10
266.9022461
20
47.7778019
11
266.574707
21
46.7647159
0
LINE
8
left_labelLayer
10
263.9239258
20
44.9975284
11
263.9239258
21
44.4567081
0
LINE
8
left_labelLayer
10
263.9239258
20
44.4567081
11
266.0491211
21
44.4567081
0
ARC
8
left_labelLayer
10
267.7838512
20
45.0259731
40
5.1247172
50
167.5775863
51
180.6586826
0
ARC
8
left_labelLayer
10
265.3740432
20
45.5878025
40
2.650641
50
141.7433758
51
168.2322223
0
ARC
8
left_labelLayer
10
264.9816794
20
45.7925864
40
2.217262
50
98.2551617
51
139.6203261
0
ARC
8
left_labelLayer
10
265.3261839
20
44.2010997
40
3.8433677
50
89.6697042
51
99.9314201
0
ARC
8
left_labelLayer
10
265.3271424
20
43.9726209
40
4.0718377
50
81.5640834
51
89.7017245
0
ARC
8
left_labelLayer
10
265.0408902
20
41.975553
40
6.0893006
50
75.9739884
51
81.6564923
0
ARC
8
left_labelLayer
10
264.5496083
20
39.937846
40
8.1853413
50
73.2963909
51
76.0945863
0
ARC
8
left_labelLayer
10
264.6733619
20
40.9263858
40
6.1401313
50
71.9613363
51
76.591843
0
ARC
8
left_labelLayer
10
265.1497156
20
42.9471316
40
4.0640086
50
76.5183374
51
83.0216743
0
ARC
8
left_labelLayer
10
265.315651
20
44.2815422
40
2.7193241
50
83.0761076
51
89.7927301
0
ARC
8
left_labelLayer
10
265.3101888
20
45.2956655
40
1.7052519
50
89.4859374
51
103.4197671
0
ARC
8
left_labelLayer
10
265.1564474
20
45.8863208
40
1.0951142
50
102.7677307
51
144.338032
0
ARC
8
left_labelLayer
10
265.4661661
20
45.6870443
40
1.4630491
50
145.0688262
51
162.1802101
0
ARC
8
left_labelLayer
10
266.5281069
20
45.3297524
40
2.5834265
50
161.8437474
51
171.7846892
0
ARC
8
left_labelLayer
10
268.2601043
20
45.069609
40
4.3348344
50
171.6527404
51
178.4383793
0
ARC
8
left_labelLayer
10
269.8940488
20
44.9999365
40
5.9701236
50
178.197317
51
180.0231108
0
LINE
8
left_labelLayer
10
271.4116211
20
37.1518253
11
271.4116211
21
36.1844425
0
LINE
8
left_labelLayer
10
267.6639648
20
38.5076847
11
267.6639648
21
43.4740909
0
LINE
8
left_labelLayer
10
267.6639648
20
43.4740909
11
266.4680664
21
43.4740909
0
LINE
8
left_labelLayer
10
266.4680664
20
43.4740909
11
266.4680664
21
44.0834659
0
LINE
8
left_labelLayer
10
266.4680664
20
44.0834659
11
267.6639648
21
44.6090519
0
LINE
8
left_labelLayer
10
267.6639648
20
44.6090519
11
268.197168
21
46.3914737
0
LINE
8
left_labelLayer
10
268.197168
20
46.3914737
11
268.928418
21
46.3914737
0
LINE
8
left_labelLayer
10
268.928418
20
46.3914737
11
268.928418
21
44.4567081
0
LINE
8
left_labelLayer
10
268.928418
20
44.4567081
11
271.3506836
21
44.4567081
0
LINE
8
left_labelLayer
10
271.3506836
20
44.4567081
11
271.3506836
21
43.4740909
0
LINE
8
left_labelLayer
10
271.3506836
20
43.4740909
11
268.928418
21
43.4740909
0
LINE
8
left_labelLayer
10
268.928418
20
43.4740909
11
268.928418
21
38.561005
0
ARC
8
left_labelLayer
10
270.2777158
20
41.1520891
40
4.1526166
50
269.880337
51
278.3028561
0
ARC
8
left_labelLayer
10
270.3177432
20
40.8258466
40
3.8240208
50
278.4152797
51
279.008375
0
ARC
8
left_labelLayer
10
269.8513241
20
43.805581
40
6.8400355
50
278.9589761
51
280.5104538
0
ARC
8
left_labelLayer
10
270.2953613
20
41.4230501
40
4.4164811
50
280.4847954
51
282.6268768
0
ARC
8
left_labelLayer
10
270.6847625
20
39.6930639
40
2.6432129
50
282.5877173
51
285.5793866
0
ARC
8
left_labelLayer
10
270.8806355
20
38.9727214
40
1.8967361
50
285.7240281
51
286.2570409
0
ARC
8
left_labelLayer
10
270.8800169
20
37.3088144
40
1.2437102
50
287.9887604
51
295.3048329
0
ARC
8
left_labelLayer
10
270.580012
20
38.2164767
40
2.1996599
50
283.3070226
51
288.1196769
0
ARC
8
left_labelLayer
10
270.2631117
20
39.5384036
40
3.5590369
50
280.0070622
51
283.3734315
0
ARC
8
left_labelLayer
10
270.0511157
20
40.6888339
40
4.7288118
50
279.1863881
51
280.1144255
0
ARC
8
left_labelLayer
10
269.9209552
20
41.4292267
40
5.4804977
50
275.5260737
51
279.2939631
0
ARC
8
left_labelLayer
10
270.0676262
20
39.8972724
40
3.941539
50
270.8932477
51
275.5483992
0
ARC
8
left_labelLayer
10
270.0860523
20
39.1961579
40
3.2402311
50
270.0031511
51
270.760738
0
ARC
8
left_labelLayer
10
270.035206
20
39.2580993
40
3.3025666
50
253.7847946
51
270.8852524
0
ARC
8
left_labelLayer
10
269.6439395
20
37.9237321
40
1.912024
50
190.381762
51
253.877242
0
ARC
8
left_labelLayer
10
271.6382248
20
38.4629506
40
3.9745117
50
179.3551082
51
192.8477492
0
ARC
8
left_labelLayer
10
271.47456
20
38.5450816
40
2.5461918
50
179.6416802
51
189.7506035
0
ARC
8
left_labelLayer
10
270.5757009
20
38.384758
40
1.6331754
50
189.5479346
51
205.7873718
0
ARC
8
left_labelLayer
10
270.2063127
20
38.2144218
40
1.2264929
50
206.1294578
51
221.4084079
0
ARC
8
left_labelLayer
10
270.1648937
20
38.1829935
40
1.174647
50
221.5949173
51
262.3505168
0
ARC
8
left_labelLayer
10
270.263401
20
38.6895659
40
1.6900938
50
261.3266669
51
270.1912666
0
LINE
8
top_outsideCutPath
10
383
20
233
11
383
21
216.53435
0
LINE
8
top_outsideCutPath
10
383
20
216.53435
11
380
21
216.53435
0
LINE
8
top_outsideCutPath
10
380
20
216.53435
11
380
21
188.81025
0
LINE
8
top_outsideCutPath
10
380
20
188.81025
11
383
21
188.81025
0
LINE
8
top_outsideCutPath
10
383
20
188.81025
11
383
21
161.08615
0
LINE
8
top_outsideCutPath
10
383
20
161.08615
11
380
21
161.08615
0
LINE
8
top_outsideCutPath
10
380
20
161.08615
11
380
21
133.36205
0
LINE
8
top_outsideCutPath
10
380
20
133.36205
11
383
21
133.36205
0
LINE
8
top_outsideCutPath
10
383
20
133.36205
11
383
21
105.63795
0
LINE
8
top_outsideCutPath
10
383
20
105.63795
11
380
21
105.63795
0
LINE
8
top_outsideCutPath
10
380
20
105.63795
11
380
21
77.91385
0
LINE
8
top_outsideCutPath
10
380
20
77.91385
11
383
21
77.91385
0
LINE
8
top_outsideCutPath
10
383
20
77.91385
11
383
21
50.18975
0
LINE
8
top_outsideCutPath
10
383
20
50.18975
11
380
21
50.18975
0
LINE
8
top_outsideCutPath
10
380
20
50.18975
11
380
21
22.46565
0
LINE
8
top_outsideCutPath
10
380
20
22.46565
11
383
21
22.46565
0
LINE
8
top_outsideCutPath
10
383
20
22.46565
11
383
21
6
0
LINE
8
top_outsideCutPath
10
383
20
6
11
408.91385
21
6
0
LINE
8
top_outsideCutPath
10
408.91385
20
6
11
408.91385
21
3
0
LINE
8
top_outsideCutPath
10
408.91385
20
3
11
436.63795
21
3
0
LINE
8
top_outsideCutPath
10
436.63795
20
3
11
436.63795
21
6
0
LINE
8
top_outsideCutPath
10
436.63795
20
6
11
464.36205
21
6
0
LINE
8
top_outsideCutPath
10
464.36205
20
6
11
464.36205
21
3
0
LINE
8
top_outsideCutPath
10
464.36205
20
3
11
492.08615
21
3
0
LINE
8
top_outsideCutPath
10
492.08615
20
3
11
492.08615
21
6
0
LINE
8
top_outsideCutPath
10
492.08615
20
6
11
518
21
6
0
LINE
8
top_outsideCutPath
10
518
20
6
11
518
21
22.46565
0
LINE
8
top_outsideCutPath
10
518
20
22.46565
11
521
21
22.46565
0
LINE
8
top_outsideCutPath
10
521
20
22.46565
11
521
21
50.18975
0
LINE
8
top_outsideCutPath
10
521
20
50.18975
11
518
21
50.18975
0
LINE
8
top_outsideCutPath
10
518
20
50.18975
11
518
21
77.91385
0
LINE
8
top_outsideCutPath
10
518
20
77.91385
11
521
21
77.91385
0
LINE
8
top_outsideCutPath
10
521
20
77.91385
11
521
21
105.63795
0
LINE
8
top_outsideCutPath
10
521
20
105.63795
11
518
21
105.63795
0
LINE
8
top_outsideCutPath
10
518
20
105.63795
11
518
21
133.36205
0
LINE
8
top_outsideCutPath
10
518
20
133.36205
11
521
21
133.36205
0
LINE
8
top_outsideCutPath
10
521
20
133.36205
11
521
21
161.08615
0
LINE
8
top_outsideCutPath
10
521
20
161.08615
11
518
21
161.08615
0
LINE
8
top_outsideCutPath
10
518
20
161.08615
11
518
21
188.81025
0
LINE
8
top_outsideCutPath
10
518
20
188.81025
11
521
21
188.81025
0
LINE
8
top_outsideCutPath
10
521
20
188.81025
11
521
21
216.53435
0
LINE
8
top_outsideCutPath
10
521
20
216.53435
11
518
21
216.53435
0
LINE
8
top_outsideCutPath
10
518
20
216.53435
11
518
21
233
0
LINE
8
top_outsideCutPath
10
518
20
233
11
492.08615
21
233
0
LINE
8
top_outsideCutPath
10
492.08615
20
233
11
492.08615
21
236
0
LINE
8
top_outsideCutPath
10
492.08615
20
236
11
464.36205
21
236
0
LINE
8
top_outsideCutPath
10
464.36205
20
236
11
464.36205
21
233
0
LINE
8
top_outsideCutPath
10
464.36205
20
233
11
436.63795
21
233
0
LINE
8
top_outsideCutPath
10
436.63795
20
233
11
436.63795
21
236
0
LINE
8
top_outsideCutPath
10
436.63795
20
236
11
408.91385
21
236
0
LINE
8
top_outsideCutPath
10
408.91385
20
236
11
408.91385
21
233
0
LINE
8
top_outsideCutPath
10
408.91385
20
233
11
383
21
233
0
LINE
8
top_labelLayer
10
438.3000787
20
115.4792969
11
438.3000787
21
113.7305664
0
LINE
8
top_labelLayer
10
431.5254693
20
117.9302734
11
431.5254693
21
126.9080078
0
LINE
8
top_labelLayer
10
431.5254693
20
126.9080078
11
429.3636529
21
126.9080078
0
LINE
8
top_labelLayer
10
429.3636529
20
126.9080078
11
429.3636529
21
128.0095703
0
LINE
8
top_labelLayer
10
429.3636529
20
128.0095703
11
431.5254693
21
128.959668
0
LINE
8
top_labelLayer
10
431.5254693
20
128.959668
11
432.4893365
21
132.1817383
0
LINE
8
top_labelLayer
10
432.4893365
20
132.1817383
11
433.8112115
21
132.1817383
0
LINE
8
top_labelLayer
10
433.8112115
20
132.1817383
11
433.8112115
21
128.6842773
0
LINE
8
top_labelLayer
10
433.8112115
20
128.6842773
11
438.1899224
21
128.6842773
0
LINE
8
top_labelLayer
10
438.1899224
20
128.6842773
11
438.1899224
21
126.9080078
0
LINE
8
top_labelLayer
10
438.1899224
20
126.9080078
11
433.8112115
21
126.9080078
0
LINE
8
top_labelLayer
10
433.8112115
20
126.9080078
11
433.8112115
21
118.0266602
0
ARC
8
top_labelLayer
10
436.250323
20
122.7106069
40
7.5067171
50
269.8803663
51
278.3028136
0
ARC
8
top_labelLayer
10
436.32165
20
122.1276616
40
6.9195951
50
278.4154311
51
279.0079313
0
ARC
8
top_labelLayer
10
435.4795351
20
127.5072998
40
12.3647399
50
278.9589633
51
280.5104335
0
ARC
8
top_labelLayer
10
436.2821461
20
123.2007597
40
7.984049
50
280.4848221
51
282.6267935
0
ARC
8
top_labelLayer
10
436.9861921
20
120.072872
40
4.7779073
50
282.5876596
51
285.5794593
0
ARC
8
top_labelLayer
10
437.3372563
20
118.781342
40
3.4395535
50
285.7244885
51
286.2558218
0
ARC
8
top_labelLayer
10
437.3390945
20
115.7631013
40
2.2482635
50
287.988809
51
295.3048229
0
ARC
8
top_labelLayer
10
436.7968189
20
117.4037376
40
3.9761824
50
283.3069539
51
288.1197607
0
ARC
8
top_labelLayer
10
436.2240241
20
119.7930203
40
6.4331584
50
280.0069484
51
283.3735717
0
ARC
8
top_labelLayer
10
435.8407263
20
121.8731363
40
8.5482485
50
279.1862197
51
280.1142558
0
ARC
8
top_labelLayer
10
435.6054324
20
123.2114053
40
9.9069348
50
275.5260298
51
279.2939643
0
ARC
8
top_labelLayer
10
435.870551
20
120.4422038
40
7.1250731
50
270.8932382
51
275.5484007
0
ARC
8
top_labelLayer
10
435.9038582
20
119.1779319
40
5.8604513
50
270.0031489
51
270.7603337
0
ARC
8
top_labelLayer
10
435.8119441
20
119.2867936
40
5.9700257
50
253.7847938
51
270.8852475
0
ARC
8
top_labelLayer
10
435.1046546
20
116.8746673
40
3.4563516
50
190.3817679
51
253.877239
0
ARC
8
top_labelLayer
10
438.7097012
20
117.8494073
40
7.184687
50
179.3551022
51
192.8477568
0
ARC
8
top_labelLayer
10
438.4138415
20
117.9978725
40
4.6027201
50
179.6416414
51
189.7505899
0
ARC
8
top_labelLayer
10
436.7890018
20
117.7080635
40
2.9522887
50
189.5479739
51
205.787355
0
ARC
8
top_labelLayer
10
436.121249
20
117.4001417
40
2.2171178
50
206.1294281
51
221.4084059
0
ARC
8
top_labelLayer
10
436.0463799
20
117.3433328
40
2.1234015
50
221.5949283
51
262.3505042
0
ARC
8
top_labelLayer
10
436.2244491
20
118.2590397
40
3.0551506
50
261.3266322
51
270.1912873
0
ARC
8
top_labelLayer
10
442.5350561
20
121.0727489
40
11.8067948
50
349.1761873
51
0.386259
0
ARC
8
top_labelLayer
10
446.5101246
20
120.2803108
40
7.7536996
50
330.2507057
51
349.4116448
0
ARC
8
top_labelLayer
10
447.7334403
20
119.6444818
40
6.376346
50
318.1439841
51
329.7566087
0
ARC
8
top_labelLayer
10
447.9542432
20
119.4675306
40
6.0938339
50
278.8959174
51
317.9979142
0
ARC
8
top_labelLayer
10
447.385343
20
122.1931777
40
8.8757817
50
269.7502935
51
279.8033291
0
ARC
8
top_labelLayer
10
447.2930796
20
120.6574428
40
7.3401579
50
253.5436914
51
270.418247
0
ARC
8
top_labelLayer
10
447.0487427
20
119.7122838
40
6.3645874
50
238.8115611
51
253.2428288
0
ARC
8
top_labelLayer
10
446.9698825
20
119.5536972
40
6.1881007
50
207.7947003
51
238.6758017
0
ARC
8
top_labelLayer
10
448.1014357
20
120.2467149
40
7.5127429
50
205.6559991
51
208.446103
0
ARC
8
top_labelLayer
10
448.9729891
20
120.6098632
40
8.4557489
50
188.9102523
51
205.3171427
0
ARC
8
top_labelLayer
10
451.9102368
20
121.1073355
40
11.4346607
50
179.7744761
51
189.0932785
0
ARC
8
top_labelLayer
10
452.3435043
20
121.2327286
40
11.868112
50
169.2442969
51
180.3880774
0
ARC
8
top_labelLayer
10
448.3131871
20
122.0293758
40
7.7599882
50
150.7111487
51
169.4695415
0
ARC
8
top_labelLayer
10
447.0265955
20
122.6900856
40
6.3148649
50
138.1759583
51
150.228728
0
ARC
8
top_labelLayer
10
446.8125677
20
122.8543261
40
6.0458834
50
99.1759391
51
137.9832747
0
ARC
8
top_labelLayer
10
447.4016201
20
120.0821787
40
8.8775858
50
89.7326274
51
100.0759805
0
ARC
8
top_labelLayer
10
447.5193524
20
121.2793713
40
7.6806757
50
73.5222778
51
90.5692242
0
ARC
8
top_labelLayer
10
447.9697785
20
122.9158912
40
5.9836945
50
41.1445618
51
73.2133816
0
ARC
8
top_labelLayer
10
447.1099487
20
122.1768796
40
7.117438
50
13.5014421
51
41.0703355
0
ARC
8
top_labelLayer
10
443.7880256
20
121.3075766
40
10.5507429
50
1.1277169
51
13.8800054
0
ARC
8
top_labelLayer
10
440.9263834
20
121.1542403
40
13.4151993
50
359.9919
51
1.5419455
0
ARC
8
top_labelLayer
10
454.4188429
20
121.0929435
40
11.5749713
50
179.7059693
51
187.9160723
0
ARC
8
top_labelLayer
10
450.1734966
20
120.4831059
40
7.2861169
50
187.763932
51
200.0976863
0
ARC
8
top_labelLayer
10
447.8347547
20
119.6261883
40
4.79533
50
200.0845956
51
216.9131696
0
ARC
8
top_labelLayer
10
446.9807317
20
119.016375
40
3.7463284
50
217.3009548
51
261.7099061
0
ARC
8
top_labelLayer
10
447.3772
20
120.908289
40
5.6768967
50
260.503327
51
270.2476665
0
ARC
8
top_labelLayer
10
447.452872
20
120.5403947
40
5.3091957
50
269.4481723
51
284.7255678
0
ARC
8
top_labelLayer
10
447.8731697
20
118.9816445
40
3.6948226
50
284.5662365
51
322.6333811
0
ARC
8
top_labelLayer
10
446.8904881
20
119.6915869
40
4.9068055
50
323.0089383
51
342.6390379
0
ARC
8
top_labelLayer
10
444.0798271
20
120.6101903
40
7.8636184
50
342.3615739
51
353.7537633
0
ARC
8
top_labelLayer
10
439.9331474
20
121.1100178
40
12.0401501
50
353.5363129
51
0.2014179
0
ARC
8
top_labelLayer
10
440.5684774
20
121.2105536
40
11.4048944
50
359.707565
51
7.8972647
0
ARC
8
top_labelLayer
10
444.7452687
20
121.8093337
40
7.1854706
50
7.7439939
51
20.0690126
0
ARC
8
top_labelLayer
10
447.0727424
20
122.6634274
40
4.7062386
50
20.0257152
51
37.4350527
0
ARC
8
top_labelLayer
10
447.8449806
20
123.2113962
40
3.7601158
50
37.9577669
51
80.4006213
0
ARC
8
top_labelLayer
10
447.4061443
20
121.2533617
40
5.7648909
50
79.3453294
51
90.3174903
0
ARC
8
top_labelLayer
10
447.3248878
20
121.5785778
40
5.4398098
50
89.4806054
51
103.8804903
0
ARC
8
top_labelLayer
10
446.8678032
20
123.3191606
40
3.6404957
50
103.4685255
51
142.3118949
0
ARC
8
top_labelLayer
10
447.756407
20
122.6942299
40
4.7260033
50
142.9025635
51
162.3749659
0
ARC
8
top_labelLayer
10
450.5564228
20
121.7611321
40
7.6772234
50
162.0653194
51
173.1674771
0
ARC
8
top_labelLayer
10
454.9223582
20
121.204285
40
12.0784457
50
173.0086237
51
180.2463914
0
LINE
8
top_labelLayer
10
460.6342584
20
115.534375
11
460.469024
21
115.534375
0
LINE
8
top_labelLayer
10
460.6342584
20
113.0283203
11
460.6342584
21
106.8182617
0
LINE
8
top_labelLayer
10
460.6342584
20
106.8182617
11
458.3485162
21
106.8182617
0
LINE
8
top_labelLayer
10
458.3485162
20
106.8182617
11
458.3485162
21
128.6842773
0
LINE
8
top_labelLayer
10
458.3485162
20
128.6842773
11
460.2074029
21
128.6842773
0
LINE
8
top_labelLayer
10
460.2074029
20
128.6842773
11
460.5241021
21
126.6188477
0
LINE
8
top_labelLayer
10
460.5241021
20
126.6188477
11
460.6342584
21
126.6188477
0
LINE
8
top_labelLayer
10
460.6342584
20
121.6618164
11
460.6342584
21
121.1523438
0
ARC
8
top_labelLayer
10
465.3324305
20
120.2505235
40
6.9331502
50
255.775543
51
270.3185523
0
ARC
8
top_labelLayer
10
465.1345732
20
119.3714717
40
6.0324803
50
245.9801542
51
255.545593
0
ARC
8
top_labelLayer
10
464.7513575
20
118.4803012
40
5.062508
50
215.585025
51
245.8361626
0
ARC
8
top_labelLayer
10
439.0082032
20
112.8224436
40
21.631491
50
2.9503229
51
7.2021004
0
ARC
8
top_labelLayer
10
442.507937
20
113.0182523
40
18.1263241
50
0.0318243
51
2.9015895
0
ARC
8
top_labelLayer
10
465.6692935
20
123.0827365
40
6.1526954
50
132.3565076
51
144.9195869
0
ARC
8
top_labelLayer
10
464.7267522
20
124.111021
40
4.7577993
50
115.4006202
51
132.3118442
0
ARC
8
top_labelLayer
10
465.0944059
20
123.2160089
40
5.7242284
50
97.7066289
51
114.8821486
0
ARC
8
top_labelLayer
10
465.3511717
20
121.5507775
40
7.4089169
50
89.8468377
51
97.9474287
0
ARC
8
top_labelLayer
10
465.4417201
20
121.9536387
40
7.0063864
50
74.1923544
51
90.5785211
0
ARC
8
top_labelLayer
10
465.9265229
20
123.715998
40
5.1786301
50
38.0523455
51
74.0417352
0
ARC
8
top_labelLayer
10
464.5893541
20
122.6911152
40
6.8633206
50
16.3355922
51
37.9090601
0
ARC
8
top_labelLayer
10
461.0765546
20
121.6091519
40
10.5387471
50
4.5766622
51
16.6088684
0
ARC
8
top_labelLayer
10
456.7518755
20
121.1782333
40
14.8842608
50
359.9003403
51
4.9018089
0
ARC
8
top_labelLayer
10
458.2345132
20
121.0732762
40
13.4018339
50
350.6562783
51
0.3380329
0
ARC
8
top_labelLayer
10
462.9066076
20
120.2786043
40
8.6627457
50
335.8305914
51
350.8254786
0
ARC
8
top_labelLayer
10
464.9617806
20
119.3915621
40
6.4246254
50
321.3161459
51
335.5436152
0
ARC
8
top_labelLayer
10
465.7474871
20
118.7513308
40
5.4111456
50
274.0640053
51
321.4080998
0
ARC
8
top_labelLayer
10
465.3814512
20
121.0699717
40
7.7524983
50
269.9225903
51
275.5481456
0
ARC
8
top_labelLayer
10
464.9934299
20
120.4322177
40
6.5861146
50
89.5904378
51
100.3501808
0
ARC
8
top_labelLayer
10
464.5237927
20
122.8994164
40
4.0747284
50
100.0868287
51
118.1917793
0
ARC
8
top_labelLayer
10
464.0426856
20
123.8377353
40
3.0204958
50
118.5569488
51
141.0243372
0
ARC
8
top_labelLayer
10
464.7757985
20
123.3206096
40
3.9161405
50
141.8890501
51
160.5973026
0
ARC
8
top_labelLayer
10
467.352242
20
122.3752378
40
6.6604138
50
160.2895708
51
171.2452942
0
ARC
8
top_labelLayer
10
471.5884122
20
121.6922314
40
10.951227
50
171.0868491
51
178.324739
0
ARC
8
top_labelLayer
10
475.1805722
20
121.5215114
40
14.5469905
50
178.0662376
51
179.4473764
0
ARC
8
top_labelLayer
10
475.7472824
20
121.0933296
40
15.1131393
50
179.7762696
51
185.7075281
0
ARC
8
top_labelLayer
10
469.7887165
20
120.4793848
40
9.1230742
50
185.5924798
51
194.20506
0
ARC
8
top_labelLayer
10
465.9717067
20
119.4887391
40
5.179731
50
193.9430335
51
208.021842
0
ARC
8
top_labelLayer
10
464.4273505
20
118.7030847
40
3.4474636
50
208.5536819
51
217.5605272
0
ARC
8
top_labelLayer
10
464.3015143
20
118.6507418
40
3.3159909
50
218.1690396
51
253.8047251
0
ARC
8
top_labelLayer
10
464.9165679
20
120.5470149
40
5.3089185
50
253.1382474
51
266.8483087
0
ARC
8
top_labelLayer
10
465.089035
20
122.5808441
40
7.3494018
50
266.3775281
51
270.0510757
0
ARC
8
top_labelLayer
10
465.1476339
20
119.0824811
40
3.8513875
50
269.2256849
51
292.0430361
0
ARC
8
top_labelLayer
10
465.1995991
20
118.7727945
40
3.5454888
50
293.1429606
51
324.1353874
0
ARC
8
top_labelLayer
10
464.4275251
20
119.4264806
40
4.5548145
50
323.1615486
51
325.0152792
0
ARC
8
top_labelLayer
10
463.6007815
20
119.9391081
40
5.5263527
50
325.5753714
51
344.150473
0
ARC
8
top_labelLayer
10
460.741022
20
120.7844835
40
8.5083336
50
343.9336231
51
355.1137544
0
ARC
8
top_labelLayer
10
457.0904262
20
121.154917
40
12.1773539
50
354.8402091
51
0.1174672
0
ARC
8
top_labelLayer
10
457.7333567
20
121.2380942
40
11.5345447
50
359.7108444
51
7.8610487
0
ARC
8
top_labelLayer
10
461.9273124
20
121.8359318
40
7.2982579
50
7.7149688
51
19.8859637
0
ARC
8
top_labelLayer
10
464.2338772
20
122.6690718
40
4.8458384
50
19.8991473
51
35.8979999
0
ARC
8
top_labelLayer
10
465.2627177
20
123.4482352
40
3.5556654
50
35.4481554
51
85.2266639
0
ARC
8
top_labelLayer
10
465.0477865
20
122.1003957
40
4.9177739
50
84.0378925
51
90.0847955
0
LINE
8
back_outsideCutPath
10
0
20
162
11
0
21
136.86205
0
LINE
8
back_outsideCutPath
10
0
20
136.86205
11
3
21
136.86205
0
LINE
8
back_outsideCutPath
10
3
20
136.86205
11
3
21
109.13795
0
LINE
8
back_outsideCutPath
10
3
20
109.13795
11
0
21
109.13795
0
LINE
8
back_outsideCutPath
10
0
20
109.13795
11
0
21
84
0
LINE
8
back_outsideCutPath
10
0
20
84
11
28.91385
21
84
0
LINE
8
back_outsideCutPath
10
28.91385
20
84
11
28.91385
21
87
0
LINE
8
back_outsideCutPath
10
28.91385
20
87
11
56.63795
21
87
0
LINE
8
back_outsideCutPath
10
56.63795
20
87
11
56.63795
21
84
0
LINE
8
back_outsideCutPath
10
56.63795
20
84
11
84.36205
21
84
0
LINE
8
back_outsideCutPath
10
84.36205
20
84
11
84.36205
21
87
0
LINE
8
back_outsideCutPath
10
84.36205
20
87
11
112.08615
21
87
0
LINE
8
back_outsideCutPath
10
112.08615
20
87
11
112.08615
21
84
0
LINE
8
back_outsideCutPath
10
112.08615
20
84
11
141
21
84
0
LINE
8
back_outsideCutPath
10
141
20
84
11
141
21
109.13795
0
LINE
8
back_outsideCutPath
10
141
20
109.13795
11
138
21
109.13795
0
LINE
8
back_outsideCutPath
10
138
20
109.13795
11
138
21
136.86205
0
LINE
8
back_outsideCutPath
10
138
20
136.86205
11
141
21
136.86205
0
LINE
8
back_outsideCutPath
10
141
20
136.86205
11
141
21
162
0
LINE
8
back_outsideCutPath
10
141
20
162
11
112.08615
21
162
0
LINE
8
back_outsideCutPath
10
112.08615
20
162
11
112.08615
21
159
0
LINE
8
back_outsideCutPath
10
112.08615
20
159
11
84.36205
21
159
0
LINE
8
back_outsideCutPath
10
84.36205
20
159
11
84.36205
21
162
0
LINE
8
back_outsideCutPath
10
84.36205
20
162
11
56.63795
21
162
0
LINE
8
back_outsideCutPath
10
56.63795
20
162
11
56.63795
21
159
0
LINE
8
back_outsideCutPath
10
56.63795
20
159
11
28.91385
21
159
0
LINE
8
back_outsideCutPath
10
28.91385
20
159
11
28.91385
21
162
0
LINE
8
back_outsideCutPath
10
28.91385
20
162
11
0
21
162
0
LINE
8
back_labelLayer
10
55.5931641
20
118.2241095
11
55.5017578
21
118.2241095
0
LINE
8
back_labelLayer
10
55.5017578
20
118.2241095
11
55.2351563
21
117.150086
0
LINE
8
back_labelLayer
10
55.2351563
20
117.150086
11
54.3287109
21
117.150086
0
LINE
8
back_labelLayer
10
54.3287109
20
117.150086
11
54.3287109
21
129.0024298
0
LINE
8
back_labelLayer
10
54.3287109
20
129.0024298
11
55.5931641
21
129.0024298
0
LINE
8
back_labelLayer
10
55.5931641
20
129.0024298
11
55.5931641
21
126.1231329
0
LINE
8
back_labelLayer
10
55.5322266
20
124.3864142
11
55.5931641
21
124.3864142
0
ARC
8
back_labelLayer
10
58.2514091
20
121.7712158
40
3.8646033
50
74.2393237
51
90.5623889
0
ARC
8
back_labelLayer
10
58.5069497
20
122.7086746
40
2.8929917
50
38.5631283
51
74.067041
0
ARC
8
back_labelLayer
10
57.8493294
20
122.1973366
40
3.7259692
50
16.4709164
51
38.4075283
0
ARC
8
back_labelLayer
10
55.9548037
20
121.6032693
40
5.7112786
50
5.1338638
51
16.7973283
0
ARC
8
back_labelLayer
10
53.5631047
20
121.3492117
40
8.1162105
50
359.8779442
51
5.4093382
0
ARC
8
back_labelLayer
10
54.2656614
20
121.2881813
40
7.4137645
50
350.6562672
51
0.3380426
0
ARC
8
back_labelLayer
10
56.8502051
20
120.8485775
40
4.7921605
50
335.8305987
51
350.8254757
0
ARC
8
back_labelLayer
10
57.9871071
20
120.3578761
40
3.5540544
50
321.3161558
51
335.5435996
0
ARC
8
back_labelLayer
10
58.4217585
20
120.0037021
40
2.9933998
50
274.0640076
51
321.4081005
0
ARC
8
back_labelLayer
10
58.2192697
20
121.2863623
40
4.288624
50
269.922604
51
275.5481489
0
ARC
8
back_labelLayer
10
58.1921541
20
120.8330435
40
3.8353605
50
255.7755284
51
270.3185343
0
ARC
8
back_labelLayer
10
58.0827014
20
120.3467635
40
3.3371218
50
245.9801657
51
255.5455901
0
ARC
8
back_labelLayer
10
57.8707089
20
119.8537713
40
2.8005371
50
215.5850267
51
245.836156
0
ARC
8
back_labelLayer
10
29.2304596
20
126.1008402
40
26.3627139
50
358.1123224
51
0.0484501
0
ARC
8
back_labelLayer
10
36.5675818
20
125.8545151
40
19.0214598
50
355.7238499
51
358.1258921
0
ARC
8
back_labelLayer
10
39.785892
20
125.6335516
40
15.7956451
50
355.4715266
51
355.6526803
0
ARC
8
back_labelLayer
10
57.951314
20
122.7420126
40
2.8748788
50
95.1835132
51
145.1108961
0
ARC
8
back_labelLayer
10
58.204005
20
121.3170516
40
4.3185916
50
89.8743381
51
96.8145157
0
ARC
8
back_labelLayer
10
58.004193
20
121.0237106
40
3.5532319
50
89.5731502
51
100.7324024
0
ARC
8
back_labelLayer
10
57.741155
20
122.3526786
40
2.1985544
50
100.4469489
51
119.6700793
0
ARC
8
back_labelLayer
10
57.497239
20
122.8087076
40
1.6816323
50
120.1402881
51
142.4249122
0
ARC
8
back_labelLayer
10
57.9007791
20
122.541752
40
2.1645247
50
143.3382321
51
161.2559685
0
ARC
8
back_labelLayer
10
59.5883128
20
121.9426237
40
3.9551615
50
160.8926597
51
171.2334009
0
ARC
8
back_labelLayer
10
62.4054224
20
121.4881611
40
6.8086532
50
171.0667944
51
177.8456862
0
ARC
8
back_labelLayer
10
65.3353522
20
121.3391496
40
9.7421908
50
177.6176879
51
180.0425069
0
ARC
8
back_labelLayer
10
63.953551
20
121.2992759
40
8.3604506
50
179.7762697
51
185.7075348
0
ARC
8
back_labelLayer
10
60.6573205
20
120.959645
40
5.046795
50
185.5924725
51
194.2050731
0
ARC
8
back_labelLayer
10
58.5457923
20
120.4116293
40
2.8653802
50
193.9430322
51
208.0218546
0
ARC
8
back_labelLayer
10
57.691475
20
119.977014
40
1.9071122
50
208.5536501
51
217.5604737
0
ARC
8
back_labelLayer
10
57.62186
20
119.9480587
40
1.8343798
50
218.1690551
51
253.8047029
0
ARC
8
back_labelLayer
10
57.962101
20
120.9970584
40
2.9368477
50
253.1382476
51
266.8483128
0
ARC
8
back_labelLayer
10
58.0575133
20
122.1223136
40
4.0657839
50
266.3776015
51
270.0510069
0
ARC
8
back_labelLayer
10
58.0881055
20
120.5770608
40
2.5206737
50
269.3868897
51
285.8630723
0
ARC
8
back_labelLayer
10
58.2753752
20
119.9002421
40
1.8184483
50
286.016301
51
326.8497317
0
ARC
8
back_labelLayer
10
57.3715111
20
120.4990188
40
2.9026405
50
326.710505
51
343.6661723
0
ARC
8
back_labelLayer
10
55.6795159
20
121.0160356
40
4.6717923
50
343.417156
51
353.6368949
0
ARC
8
back_labelLayer
10
53.1239833
20
121.3192663
40
7.245211
50
353.4934777
51
0.220558
0
ARC
8
back_labelLayer
10
52.8987241
20
121.3773966
40
7.4704778
50
359.768068
51
6.30953
0
ARC
8
back_labelLayer
10
55.7126858
20
121.7003172
40
4.6380869
50
6.1648577
51
16.0396318
0
ARC
8
back_labelLayer
10
57.5254073
20
122.2345239
40
2.7483593
50
15.7779665
51
32.0151232
0
ARC
8
back_labelLayer
10
58.0904577
20
122.5580833
40
2.0978673
50
32.7036305
51
35.524095
0
ARC
8
back_labelLayer
10
58.2974258
20
122.7051819
40
1.843951
50
35.5408284
51
79.8011211
0
ARC
8
back_labelLayer
10
58.0498019
20
121.6524812
40
2.9244252
50
78.67814
51
90.3749549
0
LINE
8
back_labelLayer
10
69.9591797
20
117.150086
11
69.0222656
21
117.150086
0
LINE
8
back_labelLayer
10
69.0222656
20
117.150086
11
68.7708984
21
118.3383673
0
LINE
8
back_labelLayer
10
68.7708984
20
118.3383673
11
68.7099609
21
118.3383673
0
LINE
8
back_labelLayer
10
67.3083984
20
122.1088751
11
68.7251953
21
122.1545782
0
LINE
8
back_labelLayer
10
68.7251953
20
122.1545782
11
68.7251953
21
122.672547
0
LINE
8
back_labelLayer
10
64.5890625
20
123.9522345
11
64.2005859
21
124.9196173
0
LINE
8
back_labelLayer
10
69.9591797
20
122.8477423
11
69.9591797
21
117.150086
0
LINE
8
back_labelLayer
10
68.6947266
20
120.5016485
11
68.6947266
21
121.2557501
0
LINE
8
back_labelLayer
10
68.6947266
20
121.2557501
11
67.4302734
21
121.2024298
0
ARC
8
back_labelLayer
10
64.5959059
20
121.5866165
40
5.24181
50
314.7445261
51
321.7071682
0
ARC
8
back_labelLayer
10
65.8837507
20
120.2780689
40
3.4058424
50
304.8485619
51
314.8530818
0
ARC
8
back_labelLayer
10
66.5024017
20
119.3974805
40
2.3296755
50
294.3932428
51
304.7371764
0
ARC
8
back_labelLayer
10
66.2910424
20
119.945122
40
2.9159156
50
281.2979397
51
293.7313891
0
ARC
8
back_labelLayer
10
66.0116386
20
121.2992581
40
4.2985579
50
272.9335204
51
281.4138958
0
ARC
8
back_labelLayer
10
65.9190338
20
122.6881043
40
5.6903637
50
269.9538778
51
273.1490575
0
ARC
8
back_labelLayer
10
65.8870416
20
120.8780808
40
3.8804353
50
258.6719684
51
270.4047426
0
ARC
8
back_labelLayer
10
65.6174998
20
119.5887061
40
2.5632581
50
238.3273012
51
258.9183914
0
ARC
8
back_labelLayer
10
65.4317515
20
119.2498325
40
2.1774161
50
227.7689296
51
237.8050243
0
ARC
8
back_labelLayer
10
65.3736554
20
119.168731
40
2.0783494
50
192.0827651
51
227.4520778
0
ARC
8
back_labelLayer
10
66.4451703
20
119.4328695
40
3.1815984
50
179.5457426
51
192.6949313
0
ARC
8
back_labelLayer
10
65.4497413
20
119.5480667
40
2.1879202
50
115.4904619
51
182.3568137
0
ARC
8
back_labelLayer
10
66.5454771
20
117.5382595
40
4.4753703
50
101.3568228
51
117.0798511
0
ARC
8
back_labelLayer
10
67.4254505
20
113.4260622
40
8.680495
50
92.4696195
51
101.7064902
0
ARC
8
back_labelLayer
10
67.6783563
20
109.7630533
40
12.3513635
50
91.7164254
51
92.9095376
0
ARC
8
back_labelLayer
10
65.0934289
20
122.6919858
40
3.6318185
50
359.6933299
51
8.0035611
0
ARC
8
back_labelLayer
10
66.467278
20
122.8921264
40
2.2434955
50
7.8272505
51
20.6041566
0
ARC
8
back_labelLayer
10
67.2447099
20
123.1895314
40
1.4111411
50
20.4094479
51
41.4479389
0
ARC
8
back_labelLayer
10
67.3595789
20
123.2526716
40
1.2835665
50
42.7295605
51
71.0380234
0
ARC
8
back_labelLayer
10
67.0891476
20
122.5173672
40
2.0669118
50
70.5715948
51
83.9928956
0
ARC
8
back_labelLayer
10
66.9599497
20
121.4679086
40
3.1241843
50
83.6506659
51
90.1753075
0
ARC
8
back_labelLayer
10
66.9826128
20
120.4754213
40
4.1167831
50
90.44846
51
103.766551
0
ARC
8
back_labelLayer
10
67.4667248
20
118.4338994
40
6.2148809
50
103.6226528
51
112.4320017
0
ARC
8
back_labelLayer
10
68.296531
20
116.3386921
40
8.4682556
50
112.2122029
51
115.9640953
0
ARC
8
back_labelLayer
10
66.9676506
20
119.7881281
40
5.8299938
50
106.3568569
51
118.3349793
0
ARC
8
back_labelLayer
10
67.2160541
20
119.0207657
40
6.6362908
50
104.5162569
51
106.5489218
0
ARC
8
back_labelLayer
10
67.0338644
20
119.7798055
40
5.8558318
50
90.0714449
51
104.6520967
0
ARC
8
back_labelLayer
10
67.0568445
20
120.295354
40
5.3403648
50
81.56798
51
90.3248917
0
ARC
8
back_labelLayer
10
67.3656177
20
122.3069237
40
3.3052785
50
68.2273537
51
81.7494268
0
ARC
8
back_labelLayer
10
67.795683
20
123.3769674
40
2.1520481
50
47.8683407
51
68.2933891
0
ARC
8
back_labelLayer
10
67.865486
20
123.516342
40
2.0022957
50
19.2330957
51
46.6741106
0
ARC
8
back_labelLayer
10
66.7027188
20
123.0837892
40
3.242752
50
6.3379127
51
19.6815499
0
ARC
8
back_labelLayer
10
64.9838699
20
122.8648785
40
4.9753392
50
359.8026602
51
6.6583534
0
ARC
8
back_labelLayer
10
66.1913895
20
121.5225992
40
3.4813962
50
269.5791866
51
282.0413809
0
ARC
8
back_labelLayer
10
66.4453324
20
120.396221
40
2.3268627
50
281.7120984
51
306.4593895
0
ARC
8
back_labelLayer
10
66.5579435
20
120.2110288
40
2.1110871
50
306.9881008
51
313.8559599
0
ARC
8
back_labelLayer
10
66.54454
20
120.2072022
40
2.1176502
50
314.1891936
51
347.4269913
0
ARC
8
back_labelLayer
10
65.4837451
20
120.4730312
40
3.211
50
346.9177863
51
0.28245
0
ARC
8
back_labelLayer
10
64.6912719
20
120.5015782
40
4.0034545
50
359.8179872
51
0.0010064
0
ARC
8
back_labelLayer
10
67.7310532
20
111.9228907
40
9.2844125
50
91.856491
51
96.4478287
0
ARC
8
back_labelLayer
10
67.3123459
20
115.546079
40
5.6371299
50
96.3545203
51
102.9953426
0
ARC
8
back_labelLayer
10
66.7439976
20
117.9608097
40
3.1564573
50
102.7995368
51
113.2433237
0
ARC
8
back_labelLayer
10
66.2754633
20
119.0813621
40
1.9419865
50
113.5886509
51
121.6805147
0
ARC
8
back_labelLayer
10
65.9499413
20
119.5771232
40
1.3492432
50
120.973411
51
172.4179935
0
ARC
8
back_labelLayer
10
66.5862177
20
119.4500325
40
1.9971681
50
171.2122394
51
180.2057827
0
ARC
8
back_labelLayer
10
66.3960543
20
119.4279289
40
1.8070535
50
179.5265931
51
192.7786945
0
ARC
8
back_labelLayer
10
65.7847587
20
119.2797497
40
1.1781601
50
192.3264608
51
222.0579555
0
ARC
8
back_labelLayer
10
65.7392703
20
119.2525411
40
1.1262066
50
222.5804659
51
229.2547915
0
ARC
8
back_labelLayer
10
65.8929358
20
119.4503753
40
1.3764454
50
229.7836853
51
254.272449
0
ARC
8
back_labelLayer
10
66.097578
20
120.1323246
40
2.0883698
50
253.9396736
51
266.453359
0
ARC
8
back_labelLayer
10
66.1628909
20
120.8851609
40
2.8438655
50
266.0782847
51
270.059019
0
LINE
8
back_labelLayer
10
78.1324219
20
125.2166876
11
77.7439453
21
124.1426642
0
LINE
8
back_labelLayer
10
78.0105469
20
118.5516485
11
78.0105469
21
117.431922
0
ARC
8
back_labelLayer
10
75.8602558
20
121.7233456
40
4.7257754
50
256.4243852
51
270.4889726
0
ARC
8
back_labelLayer
10
75.4826215
20
120.2494672
40
3.2045038
50
221.7976274
51
256.8020525
0
ARC
8
back_labelLayer
10
75.8483172
20
120.5196657
40
3.6574637
50
196.0166666
51
221.1349207
0
ARC
8
back_labelLayer
10
77.6862574
20
121.081436
40
5.5791564
50
183.5913664
51
196.353967
0
ARC
8
back_labelLayer
10
79.7451133
20
121.2628221
40
7.6455083
50
179.9388308
51
183.9815311
0
ARC
8
back_labelLayer
10
79.076236
20
121.3159021
40
6.9767712
50
169.8978544
51
180.368882
0
ARC
8
back_labelLayer
10
76.6474541
20
121.765189
40
4.5068666
50
153.0875168
51
170.1051323
0
ARC
8
back_labelLayer
10
75.725928
20
122.2055199
40
3.4859221
50
138.6550252
51
152.6853695
0
ARC
8
back_labelLayer
10
75.5539328
20
122.3308571
40
3.2740587
50
101.4912919
51
138.3133868
0
ARC
8
back_labelLayer
10
75.9487869
20
120.6875207
40
4.9634743
50
89.5891862
51
102.1787856
0
ARC
8
back_labelLayer
10
75.9791512
20
119.9447631
40
5.7061066
50
77.7702305
51
89.9475469
0
ARC
8
back_labelLayer
10
75.8711438
20
119.3489155
40
6.3113454
50
74.6796691
51
77.9578202
0
ARC
8
back_labelLayer
10
76.4545525
20
121.4624861
40
4.11874
50
70.0945507
51
74.7386355
0
ARC
8
back_labelLayer
10
77.0094815
20
122.9832599
40
2.4998907
50
63.5033687
51
70.1862022
0
ARC
8
back_labelLayer
10
77.2700344
20
123.5293428
40
1.8949525
50
62.9288137
51
63.1874722
0
ARC
8
back_labelLayer
10
75.6667736
20
118.9151437
40
5.6250877
50
68.3294454
51
74.8831315
0
ARC
8
back_labelLayer
10
75.369993
20
117.8627952
40
6.7184286
50
74.7801958
51
77.4497178
0
ARC
8
back_labelLayer
10
75.6815827
20
119.3253293
40
5.2231513
50
77.299886
51
81.7345175
0
ARC
8
back_labelLayer
10
75.9088318
20
120.908797
40
3.6234634
50
81.6910205
51
87.5079117
0
ARC
8
back_labelLayer
10
75.9526753
20
121.7282304
40
2.8029106
50
87.6749585
51
89.9748379
0
ARC
8
back_labelLayer
10
75.8912237
20
121.7270992
40
2.804742
50
88.7194032
51
112.5667732
0
ARC
8
back_labelLayer
10
75.6919283
20
122.3860221
40
2.1209067
50
114.4265846
51
161.6632763
0
ARC
8
back_labelLayer
10
77.6717292
20
121.6111064
40
4.2454673
50
160.1418374
51
175.1368304
0
ARC
8
back_labelLayer
10
80.396735
20
121.3051122
40
6.9869948
50
174.5310072
51
180.1549319
0
ARC
8
back_labelLayer
10
79.5333731
20
121.2545956
40
6.1236891
50
179.7041183
51
188.0743698
0
ARC
8
back_labelLayer
10
77.3277021
20
120.9318813
40
3.8945679
50
187.9315162
51
200.3885358
0
ARC
8
back_labelLayer
10
76.1350722
20
120.4900733
40
2.6227355
50
200.4183406
51
216.6392628
0
ARC
8
back_labelLayer
10
75.6350911
20
120.1326502
40
2.0082785
50
216.9695455
51
261.3103105
0
ARC
8
back_labelLayer
10
75.8557416
20
121.1613524
40
3.0591516
50
260.1359325
51
270.2692459
0
ARC
8
back_labelLayer
10
75.8455579
20
123.3953291
40
5.2931516
50
270.2658432
51
286.2891479
0
ARC
8
back_labelLayer
10
75.5237758
20
124.5953672
40
6.5353322
50
286.0460596
51
292.3653894
0
ARC
8
back_labelLayer
10
76.3807294
20
120.6381616
40
3.5967037
50
282.0344373
51
296.9454504
0
ARC
8
back_labelLayer
10
76.0108302
20
122.3051592
40
5.3042075
50
272.5980678
51
282.1878403
0
ARC
8
back_labelLayer
10
75.9047602
20
123.932033
40
6.9342918
50
269.9655097
51
272.864259
0
LINE
8
back_labelLayer
10
81.1792969
20
121.4233282
11
81.2402344
21
121.4233282
0
LINE
8
back_labelLayer
10
82.2380859
20
122.6420782
11
84.9345703
21
125.4985235
0
LINE
8
back_labelLayer
10
84.9345703
20
125.4985235
11
86.4351563
21
125.4985235
0
LINE
8
back_labelLayer
10
86.4351563
20
125.4985235
11
83.053125
21
121.941297
0
LINE
8
back_labelLayer
10
83.053125
20
121.941297
11
86.6712891
21
117.150086
0
LINE
8
back_labelLayer
10
86.6712891
20
117.150086
11
85.1402344
21
117.150086
0
LINE
8
back_labelLayer
10
85.1402344
20
117.150086
11
82.1923828
21
121.0957892
0
LINE
8
back_labelLayer
10
82.1923828
20
121.0957892
11
81.2402344
21
120.2731329
0
LINE
8
back_labelLayer
10
81.2402344
20
120.2731329
11
81.2402344
21
117.150086
0
LINE
8
back_labelLayer
10
81.2402344
20
117.150086
11
79.9910156
21
117.150086
0
LINE
8
back_labelLayer
10
79.9910156
20
117.150086
11
79.9910156
21
129.0024298
0
LINE
8
back_labelLayer
10
79.9910156
20
129.0024298
11
81.2402344
21
129.0024298
0
LINE
8
back_labelLayer
10
81.2402344
20
129.0024298
11
81.2402344
21
122.7182501
0
ARC
8
back_labelLayer
10
87.3500061
20
117.0985725
40
7.4855075
50
142.3234021
51
144.70752
0
ARC
8
back_labelLayer
10
91.3358889
20
114.0241748
40
12.519311
50
140.4331078
51
142.3365975
0
ARC
8
back_labelLayer
10
96.5303801
20
109.7481987
40
19.2473574
50
139.2798795
51
140.470346
0
ARC
8
back_labelLayer
10
102.5372117
20
104.5827506
40
27.1697226
50
138.3417777
51
139.2877323
0
ARC
8
back_labelLayer
10
72.8136321
20
122.734027
40
8.4266171
50
358.2739608
51
359.8927268
0
ARC
8
back_labelLayer
10
66.2593544
20
122.9166801
40
14.9834299
50
357.5041424
51
358.3307387
0
ARC
8
back_labelLayer
10
56.4467463
20
123.3500903
40
24.8056038
50
356.6325244
51
357.4910047
0
ARC
8
back_labelLayer
10
40.132947
20
124.3015938
40
41.1471266
50
356.0329712
51
356.644231
0
ARC
8
back_labelLayer
10
28.9550924
20
125.0562831
40
52.3504146
50
356.0206538
51
356.0553309
0
LINE
8
right_outsideCutPath
10
147
20
162
11
147
21
136.86205
0
LINE
8
right_outsideCutPath
10
147
20
136.86205
11
144
21
136.86205
0
LINE
8
right_outsideCutPath
10
144
20
136.86205
11
144
21
109.13795
0
LINE
8
right_outsideCutPath
10
144
20
109.13795
11
147
21
109.13795
0
LINE
8
right_outsideCutPath
10
147
20
109.13795
11
147
21
84
0
LINE
8
right_outsideCutPath
10
147
20
84
11
163.46565
21
84
0
LINE
8
right_outsideCutPath
10
163.46565
20
84
11
163.46565
21
87
0
LINE
8
right_outsideCutPath
10
163.46565
20
87
11
191.18975
21
87
0
LINE
8
right_outsideCutPath
10
191.18975
20
87
11
191.18975
21
84
0
LINE
8
right_outsideCutPath
10
191.18975
20
84
11
218.91385
21
84
0
LINE
8
right_outsideCutPath
10
218.91385
20
84
11
218.91385
21
87
0
LINE
8
right_outsideCutPath
10
218.91385
20
87
11
246.63795
21
87
0
LINE
8
right_outsideCutPath
10
246.63795
20
87
11
246.63795
21
84
0
LINE
8
right_outsideCutPath
10
246.63795
20
84
11
274.36205
21
84
0
LINE
8
right_outsideCutPath
10
274.36205
20
84
11
274.36205
21
87
0
LINE
8
right_outsideCutPath
10
274.36205
20
87
11
302.08615
21
87
0
LINE
8
right_outsideCutPath
10
302.08615
20
87
11
302.08615
21
84
0
LINE
8
right_outsideCutPath
10
302.08615
20
84
11
329.81025
21
84
0
LINE
8
right_outsideCutPath
10
329.81025
20
84
11
329.81025
21
87
0
LINE
8
right_outsideCutPath
10
329.81025
20
87
11
357.53435
21
87
0
LINE
8
right_outsideCutPath
10
357.53435
20
87
11
357.53435
21
84
0
LINE
8
right_outsideCutPath
10
357.53435
20
84
11
374
21
84
0
LINE
8
right_outsideCutPath
10
374
20
84
11
374
21
109.13795
0
LINE
8
right_outsideCutPath
10
374
20
109.13795
11
377
21
109.13795
0
LINE
8
right_outsideCutPath
10
377
20
109.13795
11
377
21
136.86205
0
LINE
8
right_outsideCutPath
10
377
20
136.86205
11
374
21
136.86205
0
LINE
8
right_outsideCutPath
10
374
20
136.86205
11
374
21
162
0
LINE
8
right_outsideCutPath
10
374
20
162
11
357.53435
21
162
0
LINE
8
right_outsideCutPath
10
357.53435
20
162
11
357.53435
21
159
0
LINE
8
right_outsideCutPath
10
357.53435
20
159
11
329.81025
21
159
0
LINE
8
right_outsideCutPath
10
329.81025
20
159
11
329.81025
21
162
0
LINE
8
right_outsideCutPath
10
329.81025
20
162
11
302.08615
21
162
0
LINE
8
right_outsideCutPath
10
302.08615
20
162
11
302.08615
21
159
0
LINE
8
right_outsideCutPath
10
302.08615
20
159
11
274.36205
21
159
0
LINE
8
right_outsideCutPath
10
274.36205
20
159
11
274.36205
21
162
0
LINE
8
right_outsideCutPath
10
274.36205
20
162
11
246.63795
21
162
0
LINE
8
right_outsideCutPath
10
246.63795
20
162
11
246.63795
21
159
0
LINE
8
right_outsideCutPath
10
246.63795
20
159
11
218.91385
21
159
0
LINE
8
right_outsideCutPath
10
218.91385
20
159
11
218.91385
21
162
0
LINE
8
right_outsideCutPath
10
218.91385
20
162
11
191.18975
21
162
0
LINE
8
right_outsideCutPath
10
191.18975
20
162
11
191.18975
21
159
0
LINE
8
right_outsideCutPath
10
191.18975
20
159
11
163.46565
21
159
0
LINE
8
right_outsideCutPath
10
163.46565
20
159
11
163.46565
21
162
0
LINE
8
right_outsideCutPath
10
163.46565
20
162
11
147
21
162
0
LINE
8
right_labelLayer
10
249.1694336
20
127.3570772
11
248.9942383
21
126.1840304
0
LINE
8
right_labelLayer
10
245.6274414
20
123.4266085
11
245.6274414
21
118.9477022
0
LINE
8
right_labelLayer
10
245.6274414
20
118.9477022
11
244.3629883
21
118.9477022
0
LINE
8
right_labelLayer
10
244.3629883
20
118.9477022
11
244.3629883
21
127.2961397
0
LINE
8
right_labelLayer
10
244.3629883
20
127.2961397
11
245.406543
21
127.2961397
0
LINE
8
right_labelLayer
10
245.406543
20
127.2961397
11
245.5512695
21
125.7498507
0
LINE
8
right_labelLayer
10
245.5512695
20
125.7498507
11
245.612207
21
125.7498507
0
ARC
8
right_labelLayer
10
248.1845585
20
121.6435355
40
5.8049625
50
84.9923192
51
90.12808
0
ARC
8
right_labelLayer
10
248.3239655
20
123.205474
40
4.2368179
50
78.4892009
51
85.0265913
0
ARC
8
right_labelLayer
10
247.7828954
20
120.7445693
40
5.5727092
50
77.4453605
51
81.6360709
0
ARC
8
right_labelLayer
10
248.0256801
20
122.4180758
40
3.8816879
50
81.5884511
51
87.1916663
0
ARC
8
right_labelLayer
10
248.0784104
20
123.3323074
40
2.9659813
50
87.3437769
51
89.9658969
0
ARC
8
right_labelLayer
10
248.066163
20
124.1074099
40
2.190923
50
89.6335444
51
137.0880825
0
ARC
8
right_labelLayer
10
248.6037852
20
123.5028232
40
2.997308
50
135.6208344
51
138.8377526
0
ARC
8
right_labelLayer
10
248.5250669
20
123.579665
40
2.8874745
50
138.9575728
51
174.5422174
0
ARC
8
right_labelLayer
10
249.4654872
20
123.43252
40
3.8380503
50
173.6907849
51
180.0882489
0
ARC
8
right_labelLayer
10
249.3325009
20
123.6538537
40
4.2701042
50
139.4139388
51
150.6032836
0
ARC
8
right_labelLayer
10
248.5668658
20
124.3099225
40
3.2618267
50
124.2321536
51
139.4161151
0
ARC
8
right_labelLayer
10
248.1574894
20
124.9278732
40
2.5206496
50
89.6796642
51
124.4405587
0
LINE
8
right_labelLayer
10
251.9954102
20
127.2961397
11
251.9954102
21
118.9477022
0
LINE
8
right_labelLayer
10
251.9954102
20
118.9477022
11
250.730957
21
118.9477022
0
LINE
8
right_labelLayer
10
250.730957
20
118.9477022
11
250.730957
21
127.2961397
0
LINE
8
right_labelLayer
10
250.730957
20
127.2961397
11
251.9954102
21
127.2961397
0
ARC
8
right_labelLayer
10
252.0254524
20
129.5671143
40
1.4011629
50
170.8452168
51
180.3545262
0
ARC
8
right_labelLayer
10
251.5009278
20
129.6548144
40
0.8693717
50
155.9679741
51
171.0515002
0
ARC
8
right_labelLayer
10
251.2468593
20
129.7675282
40
0.5914243
50
133.7881156
51
155.9171051
0
ARC
8
right_labelLayer
10
251.3406548
20
129.6638313
40
0.7312004
50
92.6446127
51
133.4710571
0
ARC
8
right_labelLayer
10
251.3702857
20
129.4310807
40
0.9652545
50
89.9694287
51
93.764184
0
ARC
8
right_labelLayer
10
251.3823455
20
129.6514238
40
0.7450007
50
46.3708683
51
90.8879057
0
ARC
8
right_labelLayer
10
251.4564912
20
129.72797
40
0.6384358
50
17.7252036
51
46.4473585
0
ARC
8
right_labelLayer
10
251.1107246
20
129.6089027
40
1.0040713
50
4.9428408
51
18.1900207
0
ARC
8
right_labelLayer
10
250.6708494
20
129.5613532
40
1.4464386
50
359.8847791
51
5.3180527
0
ARC
8
right_labelLayer
10
250.8090382
20
129.5495613
40
1.3082771
50
349.8345254
51
0.3890378
0
ARC
8
right_labelLayer
10
251.2853306
20
129.4607117
40
0.8237873
50
332.6322265
51
350.070531
0
ARC
8
right_labelLayer
10
251.470711
20
129.3691726
40
0.6170878
50
313.6153813
51
332.2677062
0
ARC
8
right_labelLayer
10
251.3813723
20
129.4505198
40
0.7376588
50
269.1788559
51
314.2807074
0
ARC
8
right_labelLayer
10
251.3624196
20
129.5160944
40
0.8032015
50
250.5000247
51
270.5978752
0
ARC
8
right_labelLayer
10
251.3381122
20
129.4252017
40
0.7094471
50
225.1300789
51
249.9001648
0
ARC
8
right_labelLayer
10
251.3000551
20
129.3831616
40
0.652809
50
197.7933376
51
224.894178
0
ARC
8
right_labelLayer
10
251.6562417
20
129.5052244
40
1.0292845
50
184.99246
51
198.2040852
0
ARC
8
right_labelLayer
10
252.1172201
20
129.5553321
40
1.4929069
50
179.8805525
51
185.3686165
0
LINE
8
right_labelLayer
10
258.6223633
20
127.2961397
11
261.5092773
21
127.2961397
0
LINE
8
right_labelLayer
10
261.5092773
20
127.2961397
11
261.5092773
21
126.496335
0
LINE
8
right_labelLayer
10
261.5092773
20
126.496335
11
259.9629883
21
126.3135225
0
LINE
8
right_labelLayer
10
257.1141602
20
120.2730929
11
258.5918945
21
120.2730929
0
LINE
8
right_labelLayer
10
258.1881836
20
119.1381319
11
256.6723633
21
119.1381319
0
ARC
8
right_labelLayer
10
258.3516383
20
125.0383186
40
2.0548951
50
29.4584358
51
38.3576885
0
ARC
8
right_labelLayer
10
257.5119439
20
124.5589697
40
3.0217709
50
23.1845555
51
29.5422466
0
ARC
8
right_labelLayer
10
256.7104641
20
124.2035527
40
3.8984659
50
21.2507067
51
23.3488115
0
ARC
8
right_labelLayer
10
258.0725886
20
124.7452791
40
2.4326386
50
6.8504937
51
20.9871618
0
ARC
8
right_labelLayer
10
257.3874639
20
124.652388
40
3.1239697
50
359.8710733
51
7.0431979
0
ARC
8
right_labelLayer
10
257.6128838
20
124.6152175
40
2.8986987
50
342.5649865
51
0.5957787
0
ARC
8
right_labelLayer
10
258.1474909
20
124.4675927
40
2.3445005
50
310.6097797
51
342.0923783
0
ARC
8
right_labelLayer
10
257.8477036
20
124.8162998
40
2.8043577
50
284.9315676
51
310.622281
0
ARC
8
right_labelLayer
10
257.4725537
20
126.1308697
40
4.171271
50
272.533479
51
285.2579843
0
ARC
8
right_labelLayer
10
257.3760937
20
127.4485063
40
5.4920159
50
269.969233
51
272.9311925
0
ARC
8
right_labelLayer
10
257.3641253
20
126.0202358
40
4.0637545
50
263.4837039
51
270.1271648
0
ARC
8
right_labelLayer
10
257.2979199
20
125.3914085
40
3.4314807
50
259.4962828
51
263.3904458
0
ARC
8
right_labelLayer
10
257.7076087
20
120.0196858
40
2.2500467
50
117.3935297
51
128.4095411
0
ARC
8
right_labelLayer
10
257.1283581
20
120.7382886
40
1.3271019
50
128.0882145
51
147.1400346
0
ARC
8
right_labelLayer
10
256.8162907
20
120.9477098
40
0.951359
50
147.5369001
51
180.2592363
0
ARC
8
right_labelLayer
10
256.5202432
20
120.9353068
40
0.6553519
50
179.2919424
51
198.3580902
0
ARC
8
right_labelLayer
10
256.3975404
20
120.9030588
40
0.5287984
50
199.2291643
51
239.5690848
0
ARC
8
right_labelLayer
10
256.4996949
20
121.0443306
40
0.7025442
50
238.2210488
51
239.844927
0
ARC
8
right_labelLayer
10
256.5804459
20
121.2106087
40
0.8869903
50
240.7302863
51
254.5025878
0
ARC
8
right_labelLayer
10
256.822519
20
122.044782
40
1.7555465
50
254.1636446
51
262.2123964
0
ARC
8
right_labelLayer
10
257.0142862
20
123.3842086
40
3.1086161
50
262.0556448
51
267.2082842
0
ARC
8
right_labelLayer
10
257.1069133
20
125.0832385
40
4.810151
50
267.0919655
51
270.0863201
0
ARC
8
right_labelLayer
10
258.6195362
20
115.0972244
40
5.1759422
50
81.5744397
51
90.3059846
0
ARC
8
right_labelLayer
10
258.9034472
20
116.9488438
40
3.3027211
50
68.367154
51
81.7399306
0
ARC
8
right_labelLayer
10
259.2742665
20
117.8965221
40
2.2850916
50
52.1879396
51
68.2501117
0
ARC
8
right_labelLayer
10
259.5337324
20
118.246134
40
1.8498411
50
8.6201443
51
51.8982456
0
ARC
8
right_labelLayer
10
258.6243467
20
118.0537171
40
2.7783178
50
359.7430394
51
9.7326288
0
ARC
8
right_labelLayer
10
258.6650715
20
118.0068464
40
2.7377815
50
340.526875
51
0.7201557
0
ARC
8
right_labelLayer
10
259.0673168
20
117.9066924
40
2.325496
50
302.9903681
51
339.5494495
0
ARC
8
right_labelLayer
10
258.645111
20
118.443203
40
3.0060306
50
303.1868931
51
304.1722141
0
ARC
8
right_labelLayer
10
258.2515316
20
119.1246215
40
3.7919876
50
286.2542365
51
302.5279933
0
ARC
8
right_labelLayer
10
257.5353803
20
121.4868262
40
6.2602792
50
276.4939876
51
286.4953544
0
ARC
8
right_labelLayer
10
257.0885447
20
125.2221391
40
10.0221851
50
269.7545202
51
276.61695
0
ARC
8
right_labelLayer
10
257.0122358
20
122.2843744
40
7.084407
50
262.5634729
51
270.2698814
0
ARC
8
right_labelLayer
10
256.6652551
20
119.7125612
40
4.4893309
50
251.210203
51
262.7063904
0
ARC
8
right_labelLayer
10
256.1651402
20
118.2446466
40
2.9385608
50
235.9668306
51
251.2228967
0
ARC
8
right_labelLayer
10
255.6350587
20
117.4884266
40
2.0152626
50
208.9036114
51
236.4231543
0
ARC
8
right_labelLayer
10
255.6837233
20
117.4680287
40
2.0484242
50
182.2079877
51
207.7461501
0
ARC
8
right_labelLayer
10
256.3031382
20
117.5299007
40
2.6700329
50
179.9784404
51
183.0226304
0
ARC
8
right_labelLayer
10
255.5662181
20
117.5648256
40
1.9334103
50
138.3916194
51
181.0052641
0
ARC
8
right_labelLayer
10
255.7703906
20
117.3813345
40
2.2079154
50
113.8121624
51
138.3496145
0
ARC
8
right_labelLayer
10
256.1576761
20
116.5450223
40
3.1294424
50
102.2870808
51
114.1172789
0
ARC
8
right_labelLayer
10
256.0359817
20
120.7969266
40
1.3123371
50
216.5861451
51
245.4968712
0
ARC
8
right_labelLayer
10
256.2238585
20
120.956319
40
1.5582799
50
215.465089
51
217.1746634
0
ARC
8
right_labelLayer
10
255.9109301
20
120.730293
40
1.1722703
50
182.1767558
51
215.3415292
0
ARC
8
right_labelLayer
10
256.1895458
20
120.7601795
40
1.4519482
50
179.9836866
51
182.937685
0
ARC
8
right_labelLayer
10
256.1835202
20
120.7728154
40
1.4459742
50
161.7225766
51
180.4843162
0
ARC
8
right_labelLayer
10
256.0245403
20
120.8161955
40
1.2814397
50
144.4963618
51
161.3350333
0
ARC
8
right_labelLayer
10
256.4483319
20
120.5003486
40
1.8099024
50
132.7258951
51
144.1479667
0
ARC
8
right_labelLayer
10
257.1275344
20
119.7750465
40
2.8035567
50
125.2212163
51
132.8656047
0
ARC
8
right_labelLayer
10
257.8104087
20
118.8267944
40
3.9720662
50
121.2352089
51
125.3794746
0
ARC
8
right_labelLayer
10
256.5998748
20
124.2706723
40
2.2166883
50
215.1640764
51
247.4747816
0
ARC
8
right_labelLayer
10
257.0137124
20
124.6046471
40
2.7475649
50
212.4714066
51
215.8874804
0
ARC
8
right_labelLayer
10
256.9048461
20
124.526765
40
2.6139158
50
183.0160818
51
212.3123137
0
ARC
8
right_labelLayer
10
257.4784068
20
124.5906955
40
3.1902234
50
179.9758863
51
183.6206802
0
ARC
8
right_labelLayer
10
257.9412785
20
124.6228929
40
3.6532253
50
166.8195843
51
180.4839191
0
ARC
8
right_labelLayer
10
256.7293557
20
124.9288762
40
2.4035555
50
132.3287858
51
167.3340732
0
ARC
8
right_labelLayer
10
256.891492
20
124.6958177
40
2.6852899
50
106.2188895
51
131.5377651
0
ARC
8
right_labelLayer
10
257.301731
20
123.3675002
40
4.0753899
50
93.632956
51
106.540882
0
ARC
8
right_labelLayer
10
257.4356589
20
121.8639518
40
5.584535
50
89.9380279
51
94.0268
0
ARC
8
right_labelLayer
10
257.457346
20
122.6018039
40
4.8467049
50
82.5852143
51
90.1849706
0
ARC
8
right_labelLayer
10
257.6054382
20
123.7476203
40
3.6913584
50
74.0089007
51
82.5694526
0
ARC
8
right_labelLayer
10
256.1216729
20
117.5288689
40
1.2699349
50
179.2207682
51
200.9355373
0
ARC
8
right_labelLayer
10
255.9706524
20
117.4939007
40
1.1165928
50
202.0287004
51
236.1457354
0
ARC
8
right_labelLayer
10
256.1982092
20
117.7828204
40
1.4835609
50
235.0633679
51
238.5042454
0
ARC
8
right_labelLayer
10
256.4628593
20
118.2555125
40
2.0249899
50
239.1066312
51
254.4862854
0
ARC
8
right_labelLayer
10
256.8156483
20
119.4719182
40
3.2914702
50
254.2324012
51
263.4937613
0
ARC
8
right_labelLayer
10
257.0372589
20
121.3489084
40
5.1814881
50
263.4108403
51
270.145727
0
ARC
8
right_labelLayer
10
257.0607103
20
122.6012056
40
6.4337766
50
269.9085159
51
270.0011535
0
ARC
8
right_labelLayer
10
257.0911417
20
124.6677086
40
8.5003338
50
269.7957523
51
275.3990994
0
ARC
8
right_labelLayer
10
257.4092855
20
121.4016437
40
5.2188325
50
275.2956857
51
283.3516249
0
ARC
8
right_labelLayer
10
257.9276014
20
119.2668136
40
3.0220327
50
283.1370496
51
295.8573071
0
ARC
8
right_labelLayer
10
258.3116717
20
118.4283445
40
2.1000993
50
296.4047193
51
301.8009063
0
ARC
8
right_labelLayer
10
258.4622341
20
118.2208198
40
1.8444793
50
301.223071
51
318.6238133
0
ARC
8
right_labelLayer
10
258.8018561
20
117.9070979
40
1.3823047
50
319.0765419
51
1.1406985
0
ARC
8
right_labelLayer
10
258.4731616
20
117.9481679
40
1.7107788
50
359.5461383
51
10.9904557
0
ARC
8
right_labelLayer
10
259.133982
20
118.0825774
40
1.0364712
50
10.6608822
51
30.9361887
0
ARC
8
right_labelLayer
10
259.3435025
20
118.1988549
40
0.7970206
50
31.5095043
51
58.0777448
0
ARC
8
right_labelLayer
10
259.1471351
20
117.8472524
40
1.199436
50
58.9971496
51
73.8586899
0
ARC
8
right_labelLayer
10
258.7502244
20
116.5478968
40
2.5579921
50
73.4099564
51
81.5907649
0
ARC
8
right_labelLayer
10
258.413912
20
114.3715005
40
4.7601945
50
81.4172594
51
86.5756432
0
ARC
8
right_labelLayer
10
258.2078342
20
111.0926892
40
8.0454667
50
86.505396
51
90.1399421
0
ARC
8
right_labelLayer
10
256.6542798
20
116.2315769
40
2.9066112
50
89.6435326
51
100.0209223
0
ARC
8
right_labelLayer
10
256.471592
20
117.2253784
40
1.8961948
50
99.8102664
51
116.8229862
0
ARC
8
right_labelLayer
10
256.2936398
20
117.6006548
40
1.4810354
50
117.2304583
51
130.5023352
0
ARC
8
right_labelLayer
10
256.202269
20
117.7180867
40
1.3324166
50
130.7944512
51
169.0413392
0
ARC
8
right_labelLayer
10
256.8751102
20
117.5596303
40
2.0232997
50
168.2580583
51
180.3820293
0
ARC
8
right_labelLayer
10
258.0055032
20
124.6036286
40
2.4681731
50
179.5617565
51
191.6529375
0
ARC
8
right_labelLayer
10
257.1473496
20
124.418219
40
1.5902788
50
191.3554918
51
213.3660652
0
ARC
8
right_labelLayer
10
256.9412628
20
124.2992211
40
1.3527854
50
213.9573776
51
227.7971725
0
ARC
8
right_labelLayer
10
257.1205656
20
124.5166864
40
1.6343792
50
228.2620811
51
254.7341475
0
ARC
8
right_labelLayer
10
257.349633
20
125.3019333
40
2.4522727
50
254.4016556
51
267.434874
0
ARC
8
right_labelLayer
10
257.4093913
20
126.1033096
40
3.2556078
50
267.0154336
51
270.0323681
0
ARC
8
right_labelLayer
10
257.4484564
20
125.602132
40
2.7546814
50
269.225698
51
284.3772984
0
ARC
8
right_labelLayer
10
257.8239146
20
124.2940264
40
1.3948571
50
282.7796757
51
346.4828463
0
ARC
8
right_labelLayer
10
256.7013954
20
124.6119878
40
2.5610291
50
345.4362141
51
0.746595
0
ARC
8
right_labelLayer
10
256.5436016
20
124.6842383
40
2.7188834
50
359.1806468
51
15.0431643
0
ARC
8
right_labelLayer
10
257.7755784
20
125.0436186
40
1.4361096
50
13.9535599
51
77.6673884
0
ARC
8
right_labelLayer
10
257.4221121
20
123.7769417
40
2.750069
50
76.1095258
51
90.7028252
0
ARC
8
right_labelLayer
10
257.369205
20
123.8736999
40
2.6531732
50
89.5859332
51
101.3334352
0
ARC
8
right_labelLayer
10
257.1795997
20
124.7780271
40
1.7292388
50
101.0620333
51
121.9739024
0
ARC
8
right_labelLayer
10
257.0463454
20
125.0177419
40
1.455395
50
122.5210699
51
134.9966918
0
ARC
8
right_labelLayer
10
257.1012119
20
124.984868
40
1.5175156
50
135.5839902
51
163.0016003
0
ARC
8
right_labelLayer
10
257.9025693
20
124.7222103
40
2.3607113
50
162.5911788
51
175.7343299
0
ARC
8
right_labelLayer
10
258.8637255
20
124.6275227
40
3.3263271
50
175.3393016
51
180.0863972
0
LINE
8
right_labelLayer
10
270.2004883
20
118.9477022
11
268.9360352
21
118.9477022
0
LINE
8
right_labelLayer
10
268.9360352
20
118.9477022
11
268.9360352
21
124.3482882
0
LINE
8
right_labelLayer
10
264.4875977
20
123.3123507
11
264.4875977
21
118.9477022
0
LINE
8
right_labelLayer
10
264.4875977
20
118.9477022
11
263.2231445
21
118.9477022
0
LINE
8
right_labelLayer
10
263.2231445
20
118.9477022
11
263.2231445
21
130.800046
0
LINE
8
right_labelLayer
10
263.2231445
20
130.800046
11
264.4875977
21
130.800046
0
LINE
8
right_labelLayer
10
264.4875977
20
130.800046
11
264.4875977
21
127.2123507
0
LINE
8
right_labelLayer
10
264.4266602
20
126.1383272
11
264.502832
21
126.1383272
0
LINE
8
right_labelLayer
10
270.2004883
20
124.3939913
11
270.2004883
21
118.9477022
0
ARC
8
right_labelLayer
10
265.3617981
20
124.3687852
40
3.5742958
50
359.6714317
51
8.6877315
0
ARC
8
right_labelLayer
10
266.6865373
20
124.5788805
40
2.2330347
50
8.4931386
51
22.657992
0
ARC
8
right_labelLayer
10
267.3595917
20
124.8585808
40
1.5041777
50
22.702454
51
42.3419566
0
ARC
8
right_labelLayer
10
267.435248
20
124.8926144
40
1.4255674
50
43.3790782
51
71.5386107
0
ARC
8
right_labelLayer
10
267.1523357
20
124.1020819
40
2.2650771
50
71.0828243
51
84.3690951
0
ARC
8
right_labelLayer
10
267.0253402
20
123.0223181
40
3.3521537
50
84.0197868
51
90.1510328
0
ARC
8
right_labelLayer
10
266.989254
20
122.5481208
40
3.8264363
50
89.5919663
51
100.3594858
0
ARC
8
right_labelLayer
10
266.7183085
20
123.9719899
40
2.3770785
50
100.1067968
51
118.0847218
0
ARC
8
right_labelLayer
10
266.442734
20
124.5127346
40
1.7703081
50
118.4550959
51
139.670594
0
ARC
8
right_labelLayer
10
266.7193938
20
124.3236339
40
2.1038874
50
140.6208267
51
160.5048907
0
ARC
8
right_labelLayer
10
268.1776804
20
123.7837814
40
3.6588009
50
160.1567096
51
171.5312981
0
ARC
8
right_labelLayer
10
270.5372145
20
123.40994
40
6.0477043
50
171.3202309
51
178.3406915
0
ARC
8
right_labelLayer
10
272.6485334
20
123.315615
40
8.1609365
50
178.1079576
51
180.022918
0
ARC
8
right_labelLayer
10
253.1128071
20
127.1987967
40
11.3747986
50
357.8674146
51
0.0682722
0
ARC
8
right_labelLayer
10
256.9769555
20
127.0513759
40
7.5078416
50
354.9828664
51
357.8943224
0
ARC
8
right_labelLayer
10
259.5289812
20
126.8291509
40
4.9461599
50
351.9713249
51
354.9618952
0
ARC
8
right_labelLayer
10
266.6446012
20
124.7985763
40
2.5262834
50
119.8315921
51
147.9725921
0
ARC
8
right_labelLayer
10
266.9504783
20
124.3286977
40
3.08622
50
116.6657433
51
120.418322
0
ARC
8
right_labelLayer
10
267.0076264
20
124.1786078
40
3.2460345
50
96.6652536
51
116.3782374
0
ARC
8
right_labelLayer
10
267.1306942
20
123.3295099
40
4.1037463
50
89.8927069
51
96.9959071
0
ARC
8
right_labelLayer
10
267.1700484
20
122.3032798
40
5.1300671
50
80.6862924
51
90.3537068
0
ARC
8
right_labelLayer
10
267.4894796
20
124.1821241
40
3.2243142
50
65.6022925
51
80.8843939
0
ARC
8
right_labelLayer
10
267.8730607
20
125.046035
40
2.2791178
50
46.7400758
51
65.4130796
0
ARC
8
right_labelLayer
10
267.8991277
20
125.1283466
40
2.2016283
50
19.2204472
51
45.7660572
0
ARC
8
right_labelLayer
10
266.6296501
20
124.6577425
40
3.5553669
50
6.473391
51
19.6467885
0
ARC
8
right_labelLayer
10
264.7327501
20
124.4136001
40
5.4677734
50
359.7945223
51
6.7744063
0
LINE
8
right_labelLayer
10
276.6370117
20
119.9912569
11
276.6370117
21
119.0238741
0
LINE
8
right_labelLayer
10
272.8893555
20
121.3471163
11
272.8893555
21
126.3135225
0
LINE
8
right_labelLayer
10
272.8893555
20
126.3135225
11
271.693457
21
126.3135225
0
LINE
8
right_labelLayer
10
271.693457
20
126.3135225
11
271.693457
21
126.9228975
0
LINE
8
right_labelLayer
10
271.693457
20
126.9228975
11
272.8893555
21
127.4484835
0
LINE
8
right_labelLayer
10
272.8893555
20
127.4484835
11
273.4225586
21
129.2309054
0
LINE
8
right_labelLayer
10
273.4225586
20
129.2309054
11
274.1538086
21
129.2309054
0
LINE
8
right_labelLayer
10
274.1538086
20
129.2309054
11
274.1538086
21
127.2961397
0
LINE
8
right_labelLayer
10
274.1538086
20
127.2961397
11
276.5760742
21
127.2961397
0
LINE
8
right_labelLayer
10
276.5760742
20
127.2961397
11
276.5760742
21
126.3135225
0
LINE
8
right_labelLayer
10
276.5760742
20
126.3135225
11
274.1538086
21
126.3135225
0
LINE
8
right_labelLayer
10
274.1538086
20
126.3135225
11
274.1538086
21
121.4004366
0
ARC
8
right_labelLayer
10
275.5031064
20
123.9915207
40
4.1526166
50
269.880337
51
278.3028561
0
ARC
8
right_labelLayer
10
275.5431338
20
123.6652782
40
3.8240208
50
278.4152797
51
279.008375
0
ARC
8
right_labelLayer
10
275.0767147
20
126.6450126
40
6.8400355
50
278.9589761
51
280.5104538
0
ARC
8
right_labelLayer
10
275.5207519
20
124.2624818
40
4.4164811
50
280.4847954
51
282.6268768
0
ARC
8
right_labelLayer
10
275.9101531
20
122.5324955
40
2.6432129
50
282.5877173
51
285.5793866
0
ARC
8
right_labelLayer
10
276.1060261
20
121.812153
40
1.8967361
50
285.7240281
51
286.2570409
0
ARC
8
right_labelLayer
10
276.1054075
20
120.148246
40
1.2437102
50
287.9887604
51
295.3048329
0
ARC
8
right_labelLayer
10
275.8054026
20
121.0559083
40
2.1996599
50
283.3070226
51
288.1196769
0
ARC
8
right_labelLayer
10
275.4885023
20
122.3778352
40
3.5590369
50
280.0070622
51
283.3734315
0
ARC
8
right_labelLayer
10
275.2765063
20
123.5282655
40
4.7288118
50
279.1863881
51
280.1144255
0
ARC
8
right_labelLayer
10
275.1463458
20
124.2686583
40
5.4804977
50
275.5260737
51
279.2939631
0
ARC
8
right_labelLayer
10
275.2930169
20
122.736704
40
3.941539
50
270.8932477
51
275.5483992
0
ARC
8
right_labelLayer
10
275.3114429
20
122.0355895
40
3.2402311
50
270.0031511
51
270.760738
0
ARC
8
right_labelLayer
10
275.2605966
20
122.0975309
40
3.3025666
50
253.7847946
51
270.8852524
0
ARC
8
right_labelLayer
10
274.8693302
20
120.7631637
40
1.912024
50
190.381762
51
253.877242
0
ARC
8
right_labelLayer
10
276.8636154
20
121.3023822
40
3.9745117
50
179.3551082
51
192.8477492
0
ARC
8
right_labelLayer
10
276.6999506
20
121.3845132
40
2.5461918
50
179.6416802
51
189.7506035
0
ARC
8
right_labelLayer
10
275.8010915
20
121.2241896
40
1.6331754
50
189.5479346
51
205.7873718
0
ARC
8
right_labelLayer
10
275.4317033
20
121.0538535
40
1.2264929
50
206.1294578
51
221.4084079
0
ARC
8
right_labelLayer
10
275.3902844
20
121.0224251
40
1.174647
50
221.5949173
51
262.3505168
0
ARC
8
right_labelLayer
10
275.4887917
20
121.5289975
40
1.6900938
50
261.3266669
51
270.1912666
0
LINE
8
bottom_outsideCutPath
10
383
20
469
11
383
21
452.53435
0
LINE
8
bottom_outsideCutPath
10
383
20
452.53435
11
380
21
452.53435
0
LINE
8
bottom_outsideCutPath
10
380
20
452.53435
11
380
21
424.81025
0
LINE
8
bottom_outsideCutPath
10
380
20
424.81025
11
383
21
424.81025
0
LINE
8
bottom_outsideCutPath
10
383
20
424.81025
11
383
21
397.08615
0
LINE
8
bottom_outsideCutPath
10
383
20
397.08615
11
380
21
397.08615
0
LINE
8
bottom_outsideCutPath
10
380
20
397.08615
11
380
21
369.36205
0
LINE
8
bottom_outsideCutPath
10
380
20
369.36205
11
383
21
369.36205
0
LINE
8
bottom_outsideCutPath
10
383
20
369.36205
11
383
21
341.63795
0
LINE
8
bottom_outsideCutPath
10
383
20
341.63795
11
380
21
341.63795
0
LINE
8
bottom_outsideCutPath
10
380
20
341.63795
11
380
21
313.91385
0
LINE
8
bottom_outsideCutPath
10
380
20
313.91385
11
383
21
313.91385
0
LINE
8
bottom_outsideCutPath
10
383
20
313.91385
11
383
21
286.18975
0
LINE
8
bottom_outsideCutPath
10
383
20
286.18975
11
380
21
286.18975
0
LINE
8
bottom_outsideCutPath
10
380
20
286.18975
11
380
21
258.46565
0
LINE
8
bottom_outsideCutPath
10
380
20
258.46565
11
383
21
258.46565
0
LINE
8
bottom_outsideCutPath
10
383
20
258.46565
11
383
21
242
0
LINE
8
bottom_outsideCutPath
10
383
20
242
11
408.91385
21
242
0
LINE
8
bottom_outsideCutPath
10
408.91385
20
242
11
408.91385
21
239
0
LINE
8
bottom_outsideCutPath
10
408.91385
20
239
11
436.63795
21
239
0
LINE
8
bottom_outsideCutPath
10
436.63795
20
239
11
436.63795
21
242
0
LINE
8
bottom_outsideCutPath
10
436.63795
20
242
11
464.36205
21
242
0
LINE
8
bottom_outsideCutPath
10
464.36205
20
242
11
464.36205
21
239
0
LINE
8
bottom_outsideCutPath
10
464.36205
20
239
11
492.08615
21
239
0
LINE
8
bottom_outsideCutPath
10
492.08615
20
239
11
492.08615
21
242
0
LINE
8
bottom_outsideCutPath
10
492.08615
20
242
11
518
21
242
0
LINE
8
bottom_outsideCutPath
10
518
20
242
11
518
21
258.46565
0
LINE
8
bottom_outsideCutPath
10
518
20
258.46565
11
521
21
258.46565
0
LINE
8
bottom_outsideCutPath
10
521
20
258.46565
11
521
21
286.18975
0
LINE
8
bottom_outsideCutPath
10
521
20
286.18975
11
518
21
286.18975
0
LINE
8
bottom_outsideCutPath
10
518
20
286.18975
11
518
21
313.91385
0
LINE
8
bottom_outsideCutPath
10
518
20
313.91385
11
521
21
313.91385
0
LINE
8
bottom_outsideCutPath
10
521
20
313.91385
11
521
21
341.63795
0
LINE
8
bottom_outsideCutPath
10
521
20
341.63795
11
518
21
341.63795
0
LINE
8
bottom_outsideCutPath
10
518
20
341.63795
11
518
21
369.36205
0
LINE
8
bottom_outsideCutPath
10
518
20
369.36205
11
521
21
369.36205
0
LINE
8
bottom_outsideCutPath
10
521
20
369.36205
11
521
21
397.08615
0
LINE
8
bottom_outsideCutPath
10
521
20
397.08615
11
518
21
397.08615
0
LINE
8
bottom_outsideCutPath
10
518
20
397.08615
11
518
21
424.81025
0
LINE
8
bottom_outsideCutPath
10
518
20
424.81025
11
521
21
424.81025
0
LINE
8
bottom_outsideCutPath
10
521
20
424.81025
11
521
21
452.53435
0
LINE
8
bottom_outsideCutPath
10
521
20
452.53435
11
518
21
452.53435
0
LINE
8
bottom_outsideCutPath
10
518
20
452.53435
11
518
21
469
0
LINE
8
bottom_outsideCutPath
10
518
20
469
11
492.08615
21
469
0
LINE
8
bottom_outsideCutPath
10
492.08615
20
469
11
492.08615
21
472
0
LINE
8
bottom_outsideCutPath
10
492.08615
20
472
11
464.36205
21
472
0
LINE
8
bottom_outsideCutPath
10
464.36205
20
472
11
464.36205
21
469
0
LINE
8
bottom_outsideCutPath
10
464.36205
20
469
11
436.63795
21
469
0
LINE
8
bottom_outsideCutPath
10
436.63795
20
469
11
436.63795
21
472
0
LINE
8
bottom_outsideCutPath
10
436.63795
20
472
11
408.91385
21
472
0
LINE
8
bottom_outsideCutPath
10
408.91385
20
472
11
408.91385
21
469
0
LINE
8
bottom_outsideCutPath
10
408.91385
20
469
11
383
21
469
0
LINE
8
bottom_labelLayer
10
406.3961245
20
346.8668602
11
406.2308902
21
346.8668602
0
LINE
8
bottom_labelLayer
10
406.2308902
20
346.8668602
11
405.7489566
21
344.9253563
0
LINE
8
bottom_labelLayer
10
405.7489566
20
344.9253563
11
404.1103823
21
344.9253563
0
LINE
8
bottom_labelLayer
10
404.1103823
20
344.9253563
11
404.1103823
21
366.3507469
0
LINE
8
bottom_labelLayer
10
404.1103823
20
366.3507469
11
406.3961245
21
366.3507469
0
LINE
8
bottom_labelLayer
10
406.3961245
20
366.3507469
11
406.3961245
21
361.1458641
0
LINE
8
bottom_labelLayer
10
406.2859683
20
358.006411
11
406.3961245
21
358.006411
0
ARC
8
bottom_labelLayer
10
411.2014118
20
353.2789301
40
6.9860205
50
74.2393248
51
90.5623734
0
ARC
8
bottom_labelLayer
10
411.663352
20
354.973574
40
5.2296391
50
38.5631256
51
74.0670365
0
ARC
8
bottom_labelLayer
10
410.474575
20
354.0492305
40
6.7354088
50
16.4709255
51
38.4075283
0
ARC
8
bottom_labelLayer
10
407.0498818
20
352.9753459
40
10.32421
50
5.1338511
51
16.7973432
0
ARC
8
bottom_labelLayer
10
402.726504
20
352.516089
40
14.6715091
50
359.877922
51
5.4093545
0
ARC
8
bottom_labelLayer
10
403.9963794
20
352.4057614
40
13.4018339
50
350.6562783
51
0.3380329
0
ARC
8
bottom_labelLayer
10
408.6684737
20
351.6110894
40
8.6627457
50
335.8305914
51
350.8254786
0
ARC
8
bottom_labelLayer
10
410.7236467
20
350.7240473
40
6.4246254
50
321.3161459
51
335.5436152
0
ARC
8
bottom_labelLayer
10
411.5093532
20
350.083816
40
5.4111456
50
274.0640053
51
321.4080998
0
ARC
8
bottom_labelLayer
10
411.1433173
20
352.4024569
40
7.7524983
50
269.9225903
51
275.5481456
0
ARC
8
bottom_labelLayer
10
411.0942966
20
351.5830087
40
6.9331502
50
255.775543
51
270.3185523
0
ARC
8
bottom_labelLayer
10
410.8964394
20
350.7039569
40
6.0324803
50
245.9801542
51
255.545593
0
ARC
8
bottom_labelLayer
10
410.5132237
20
349.8127864
40
5.062508
50
215.585025
51
245.8361626
0
ARC
8
bottom_labelLayer
10
358.7402277
20
361.105576
40
47.6559139
50
358.1123195
51
0.0484375
0
ARC
8
bottom_labelLayer
10
372.0036965
20
360.6602822
40
34.3849758
50
355.7238595
51
358.1258997
0
ARC
8
bottom_labelLayer
10
377.8398969
20
360.2594058
40
28.535153
50
355.4714946
51
355.6527658
0
ARC
8
bottom_labelLayer
10
410.6589344
20
355.0338385
40
5.1968966
50
95.183516
51
145.1108951
0
ARC
8
bottom_labelLayer
10
411.1157214
20
352.4579924
40
7.8066405
50
89.8743359
51
96.8145531
0
ARC
8
bottom_labelLayer
10
410.7545203
20
351.9277064
40
6.4231211
50
89.5731251
51
100.7324274
0
ARC
8
bottom_labelLayer
10
410.2790296
20
354.3300456
40
3.9743068
50
100.4469334
51
119.6700789
0
ARC
8
bottom_labelLayer
10
409.8381083
20
355.1543997
40
3.0398777
50
120.140292
51
142.4248884
0
ARC
8
bottom_labelLayer
10
410.5675837
20
354.6718296
40
3.9127955
50
143.3382453
51
161.2559773
0
ARC
8
bottom_labelLayer
10
413.6181141
20
353.5887927
40
7.1497045
50
160.892656
51
171.2334124
0
ARC
8
bottom_labelLayer
10
418.7105533
20
352.7672632
40
12.3079119
50
171.066776
51
177.8456889
0
ARC
8
bottom_labelLayer
10
424.0066731
20
352.4979025
40
17.6105534
50
177.6176702
51
180.0425346
0
ARC
8
bottom_labelLayer
10
421.5091486
20
352.4258148
40
15.1131393
50
179.7762696
51
185.7075281
0
ARC
8
bottom_labelLayer
10
415.5505827
20
351.81187
40
9.1230742
50
185.5924798
51
194.20506
0
ARC
8
bottom_labelLayer
10
411.7335729
20
350.8212242
40
5.179731
50
193.9430335
51
208.021842
0
ARC
8
bottom_labelLayer
10
410.1892167
20
350.0355699
40
3.4474636
50
208.5536819
51
217.5605272
0
ARC
8
bottom_labelLayer
10
410.0633804
20
349.983227
40
3.3159909
50
218.1690396
51
253.8047251
0
ARC
8
bottom_labelLayer
10
410.6784341
20
351.8795001
40
5.3089185
50
253.1382474
51
266.8483087
0
ARC
8
bottom_labelLayer
10
410.8509011
20
353.9133293
40
7.3494018
50
266.3775281
51
270.0510757
0
ARC
8
bottom_labelLayer
10
410.9062115
20
351.1202718
40
4.5566022
50
269.3868829
51
285.8630671
0
ARC
8
bottom_labelLayer
10
411.2447381
20
349.8967909
40
3.2871933
50
286.0162879
51
326.8497406
0
ARC
8
bottom_labelLayer
10
409.6108302
20
350.9791953
40
5.2470792
50
326.7105062
51
343.6661787
0
ARC
8
bottom_labelLayer
10
406.5522506
20
351.9137983
40
8.4451341
50
343.4171351
51
353.6369091
0
ARC
8
bottom_labelLayer
10
401.9325661
20
352.4619556
40
13.0971517
50
353.4934784
51
0.2205384
0
ARC
8
bottom_labelLayer
10
401.5253505
20
352.5670287
40
13.5043808
50
359.7680873
51
6.3095224
0
ARC
8
bottom_labelLayer
10
406.6121843
20
353.150773
40
8.384233
50
6.1648665
51
16.0396417
0
ARC
8
bottom_labelLayer
10
409.8890374
20
354.1164615
40
4.9681751
50
15.7779356
51
32.0151351
0
ARC
8
bottom_labelLayer
10
410.9109793
20
354.7017012
40
3.791675
50
32.7033958
51
35.5243242
0
ARC
8
bottom_labelLayer
10
411.2845979
20
354.9672597
40
3.3332963
50
35.5408382
51
79.8011259
0
ARC
8
bottom_labelLayer
10
410.8369701
20
353.0643123
40
5.2864503
50
78.6781191
51
90.3749579
0
ARC
8
bottom_labelLayer
10
422.6105941
20
352.4052341
40
11.8067948
50
349.1761873
51
0.386259
0
ARC
8
bottom_labelLayer
10
426.5856626
20
351.612796
40
7.7536996
50
330.2507057
51
349.4116448
0
ARC
8
bottom_labelLayer
10
427.8089783
20
350.976967
40
6.376346
50
318.1439841
51
329.7566087
0
ARC
8
bottom_labelLayer
10
428.0297812
20
350.8000157
40
6.0938339
50
278.8959174
51
317.9979142
0
ARC
8
bottom_labelLayer
10
427.4608811
20
353.5256629
40
8.8757817
50
269.7502935
51
279.8033291
0
ARC
8
bottom_labelLayer
10
427.3686176
20
351.9899279
40
7.3401579
50
253.5436914
51
270.418247
0
ARC
8
bottom_labelLayer
10
427.1242807
20
351.044769
40
6.3645874
50
238.8115611
51
253.2428288
0
ARC
8
bottom_labelLayer
10
427.0454205
20
350.8861824
40
6.1881007
50
207.7947003
51
238.6758017
0
ARC
8
bottom_labelLayer
10
428.1769737
20
351.5792
40
7.5127429
50
205.6559991
51
208.446103
0
ARC
8
bottom_labelLayer
10
429.0485271
20
351.9423484
40
8.4557489
50
188.9102523
51
205.3171427
0
ARC
8
bottom_labelLayer
10
431.9857748
20
352.4398207
40
11.4346607
50
179.7744761
51
189.0932785
0
ARC
8
bottom_labelLayer
10
432.4190424
20
352.5652137
40
11.868112
50
169.2442969
51
180.3880774
0
ARC
8
bottom_labelLayer
10
428.3887251
20
353.361861
40
7.7599882
50
150.7111487
51
169.4695415
0
ARC
8
bottom_labelLayer
10
427.1021335
20
354.0225708
40
6.3148649
50
138.1759583
51
150.228728
0
ARC
8
bottom_labelLayer
10
426.8881057
20
354.1868112
40
6.0458834
50
99.1759391
51
137.9832747
0
ARC
8
bottom_labelLayer
10
427.4771581
20
351.4146639
40
8.8775858
50
89.7326274
51
100.0759805
0
ARC
8
bottom_labelLayer
10
427.5948905
20
352.6118565
40
7.6806757
50
73.5222778
51
90.5692242
0
ARC
8
bottom_labelLayer
10
428.0453166
20
354.2483764
40
5.9836945
50
41.1445618
51
73.2133816
0
ARC
8
bottom_labelLayer
10
427.1854867
20
353.5093648
40
7.117438
50
13.5014421
51
41.0703355
0
ARC
8
bottom_labelLayer
10
423.8635636
20
352.6400618
40
10.5507429
50
1.1277169
51
13.8800054
0
ARC
8
bottom_labelLayer
10
421.0019214
20
352.4867255
40
13.4151993
50
359.9919
51
1.5419455
0
ARC
8
bottom_labelLayer
10
434.4943809
20
352.4254287
40
11.5749713
50
179.7059693
51
187.9160723
0
ARC
8
bottom_labelLayer
10
430.2490347
20
351.8155911
40
7.2861169
50
187.763932
51
200.0976863
0
ARC
8
bottom_labelLayer
10
427.9102928
20
350.9586735
40
4.79533
50
200.0845956
51
216.9131696
0
ARC
8
bottom_labelLayer
10
427.0562697
20
350.3488601
40
3.7463284
50
217.3009548
51
261.7099061
0
ARC
8
bottom_labelLayer
10
427.452738
20
352.2407742
40
5.6768967
50
260.503327
51
270.2476665
0
ARC
8
bottom_labelLayer
10
427.5284101
20
351.8728799
40
5.3091957
50
269.4481723
51
284.7255678
0
ARC
8
bottom_labelLayer
10
427.9487078
20
350.3141297
40
3.6948226
50
284.5662365
51
322.6333811
0
ARC
8
bottom_labelLayer
10
426.9660261
20
351.0240721
40
4.9068055
50
323.0089383
51
342.6390379
0
ARC
8
bottom_labelLayer
10
424.1553651
20
351.9426755
40
7.8636184
50
342.3615739
51
353.7537633
0
ARC
8
bottom_labelLayer
10
420.0086855
20
352.442503
40
12.0401501
50
353.5363129
51
0.2014179
0
ARC
8
bottom_labelLayer
10
420.6440154
20
352.5430387
40
11.4048944
50
359.707565
51
7.8972647
0
ARC
8
bottom_labelLayer
10
424.8208067
20
353.1418189
40
7.1854706
50
7.7439939
51
20.0690126
0
ARC
8
bottom_labelLayer
10
427.1482804
20
353.9959126
40
4.7062386
50
20.0257152
51
37.4350527
0
ARC
8
bottom_labelLayer
10
427.9205186
20
354.5438814
40
3.7601158
50
37.9577669
51
80.4006213
0
ARC
8
bottom_labelLayer
10
427.4816824
20
352.5858469
40
5.7648909
50
79.3453294
51
90.3174903
0
ARC
8
bottom_labelLayer
10
427.4004258
20
352.911063
40
5.4398098
50
89.4806054
51
103.8804903
0
ARC
8
bottom_labelLayer
10
426.9433412
20
354.6516458
40
3.6404957
50
103.4685255
51
142.3118949
0
ARC
8
bottom_labelLayer
10
427.831945
20
354.0267151
40
4.7260033
50
142.9025635
51
162.3749659
0
ARC
8
bottom_labelLayer
10
430.6319608
20
353.0936173
40
7.6772234
50
162.0653194
51
173.1674771
0
ARC
8
bottom_labelLayer
10
434.9978962
20
352.5367702
40
12.0784457
50
173.0086237
51
180.2463914
0
LINE
8
bottom_labelLayer
10
445.363898
20
346.8117821
11
445.363898
21
345.0630516
0
LINE
8
bottom_labelLayer
10
438.5892886
20
349.2627586
11
438.5892886
21
358.240493
0
LINE
8
bottom_labelLayer
10
438.5892886
20
358.240493
11
436.4274722
21
358.240493
0
LINE
8
bottom_labelLayer
10
436.4274722
20
358.240493
11
436.4274722
21
359.3420555
0
LINE
8
bottom_labelLayer
10
436.4274722
20
359.3420555
11
438.5892886
21
360.2921532
0
LINE
8
bottom_labelLayer
10
438.5892886
20
360.2921532
11
439.5531558
21
363.5142235
0
LINE
8
bottom_labelLayer
10
439.5531558
20
363.5142235
11
440.8750308
21
363.5142235
0
LINE
8
bottom_labelLayer
10
440.8750308
20
363.5142235
11
440.8750308
21
360.0167625
0
LINE
8
bottom_labelLayer
10
440.8750308
20
360.0167625
11
445.2537417
21
360.0167625
0
LINE
8
bottom_labelLayer
10
445.2537417
20
360.0167625
11
445.2537417
21
358.240493
0
LINE
8
bottom_labelLayer
10
445.2537417
20
358.240493
11
440.8750308
21
358.240493
0
LINE
8
bottom_labelLayer
10
440.8750308
20
358.240493
11
440.8750308
21
349.3591453
0
ARC
8
bottom_labelLayer
10
443.3141423
20
354.0430921
40
7.5067171
50
269.8803663
51
278.3028136
0
ARC
8
bottom_labelLayer
10
443.3854692
20
353.4601468
40
6.9195951
50
278.4154311
51
279.0079313
0
ARC
8
bottom_labelLayer
10
442.5433544
20
358.839785
40
12.3647399
50
278.9589633
51
280.5104335
0
ARC
8
bottom_labelLayer
10
443.3459654
20
354.5332449
40
7.984049
50
280.4848221
51
282.6267935
0
ARC
8
bottom_labelLayer
10
444.0500114
20
351.4053572
40
4.7779073
50
282.5876596
51
285.5794593
0
ARC
8
bottom_labelLayer
10
444.4010756
20
350.1138272
40
3.4395535
50
285.7244885
51
286.2558218
0
ARC
8
bottom_labelLayer
10
444.4029138
20
347.0955865
40
2.2482635
50
287.988809
51
295.3048229
0
ARC
8
bottom_labelLayer
10
443.8606382
20
348.7362228
40
3.9761824
50
283.3069539
51
288.1197607
0
ARC
8
bottom_labelLayer
10
443.2878433
20
351.1255055
40
6.4331584
50
280.0069484
51
283.3735717
0
ARC
8
bottom_labelLayer
10
442.9045456
20
353.2056214
40
8.5482485
50
279.1862197
51
280.1142558
0
ARC
8
bottom_labelLayer
10
442.6692516
20
354.5438905
40
9.9069348
50
275.5260298
51
279.2939643
0
ARC
8
bottom_labelLayer
10
442.9343703
20
351.774689
40
7.1250731
50
270.8932382
51
275.5484007
0
ARC
8
bottom_labelLayer
10
442.9676774
20
350.5104171
40
5.8604513
50
270.0031489
51
270.7603337
0
ARC
8
bottom_labelLayer
10
442.8757634
20
350.6192788
40
5.9700257
50
253.7847938
51
270.8852475
0
ARC
8
bottom_labelLayer
10
442.1684739
20
348.2071525
40
3.4563516
50
190.3817679
51
253.877239
0
ARC
8
bottom_labelLayer
10
445.7735205
20
349.1818924
40
7.184687
50
179.3551022
51
192.8477568
0
ARC
8
bottom_labelLayer
10
445.4776608
20
349.3303576
40
4.6027201
50
179.6416414
51
189.7505899
0
ARC
8
bottom_labelLayer
10
443.8528211
20
349.0405487
40
2.9522887
50
189.5479739
51
205.787355
0
ARC
8
bottom_labelLayer
10
443.1850682
20
348.7326269
40
2.2171178
50
206.1294281
51
221.4084059
0
ARC
8
bottom_labelLayer
10
443.1101992
20
348.675818
40
2.1234015
50
221.5949283
51
262.3505042
0
ARC
8
bottom_labelLayer
10
443.2882684
20
349.5915249
40
3.0551506
50
261.3266322
51
270.1912873
0
LINE
8
bottom_labelLayer
10
455.3192691
20
346.8117821
11
455.3192691
21
345.0630516
0
LINE
8
bottom_labelLayer
10
448.5446597
20
349.2627586
11
448.5446597
21
358.240493
0
LINE
8
bottom_labelLayer
10
448.5446597
20
358.240493
11
446.3828433
21
358.240493
0
LINE
8
bottom_labelLayer
10
446.3828433
20
358.240493
11
446.3828433
21
359.3420555
0
LINE
8
bottom_labelLayer
10
446.3828433
20
359.3420555
11
448.5446597
21
360.2921532
0
LINE
8
bottom_labelLayer
10
448.5446597
20
360.2921532
11
449.5085269
21
363.5142235
0
LINE
8
bottom_labelLayer
10
449.5085269
20
363.5142235
11
450.8304019
21
363.5142235
0
LINE
8
bottom_labelLayer
10
450.8304019
20
363.5142235
11
450.8304019
21
360.0167625
0
LINE
8
bottom_labelLayer
10
450.8304019
20
360.0167625
11
455.2091128
21
360.0167625
0
LINE
8
bottom_labelLayer
10
455.2091128
20
360.0167625
11
455.2091128
21
358.240493
0
LINE
8
bottom_labelLayer
10
455.2091128
20
358.240493
11
450.8304019
21
358.240493
0
LINE
8
bottom_labelLayer
10
450.8304019
20
358.240493
11
450.8304019
21
349.3591453
0
ARC
8
bottom_labelLayer
10
453.2695134
20
354.0430921
40
7.5067171
50
269.8803663
51
278.3028136
0
ARC
8
bottom_labelLayer
10
453.3408403
20
353.4601468
40
6.9195951
50
278.4154311
51
279.0079313
0
ARC
8
bottom_labelLayer
10
452.4987255
20
358.839785
40
12.3647399
50
278.9589633
51
280.5104335
0
ARC
8
bottom_labelLayer
10
453.3013365
20
354.5332449
40
7.984049
50
280.4848221
51
282.6267935
0
ARC
8
bottom_labelLayer
10
454.0053824
20
351.4053572
40
4.7779073
50
282.5876596
51
285.5794593
0
ARC
8
bottom_labelLayer
10
454.3564466
20
350.1138272
40
3.4395535
50
285.7244885
51
286.2558218
0
ARC
8
bottom_labelLayer
10
454.3582849
20
347.0955865
40
2.2482635
50
287.988809
51
295.3048229
0
ARC
8
bottom_labelLayer
10
453.8160093
20
348.7362228
40
3.9761824
50
283.3069539
51
288.1197607
0
ARC
8
bottom_labelLayer
10
453.2432144
20
351.1255055
40
6.4331584
50
280.0069484
51
283.3735717
0
ARC
8
bottom_labelLayer
10
452.8599167
20
353.2056214
40
8.5482485
50
279.1862197
51
280.1142558
0
ARC
8
bottom_labelLayer
10
452.6246227
20
354.5438905
40
9.9069348
50
275.5260298
51
279.2939643
0
ARC
8
bottom_labelLayer
10
452.8897413
20
351.774689
40
7.1250731
50
270.8932382
51
275.5484007
0
ARC
8
bottom_labelLayer
10
452.9230485
20
350.5104171
40
5.8604513
50
270.0031489
51
270.7603337
0
ARC
8
bottom_labelLayer
10
452.8311345
20
350.6192788
40
5.9700257
50
253.7847938
51
270.8852475
0
ARC
8
bottom_labelLayer
10
452.123845
20
348.2071525
40
3.4563516
50
190.3817679
51
253.877239
0
ARC
8
bottom_labelLayer
10
455.7288916
20
349.1818924
40
7.184687
50
179.3551022
51
192.8477568
0
ARC
8
bottom_labelLayer
10
455.4330319
20
349.3303576
40
4.6027201
50
179.6416414
51
189.7505899
0
ARC
8
bottom_labelLayer
10
453.8081921
20
349.0405487
40
2.9522887
50
189.5479739
51
205.787355
0
ARC
8
bottom_labelLayer
10
453.1404393
20
348.7326269
40
2.2171178
50
206.1294281
51
221.4084059
0
ARC
8
bottom_labelLayer
10
453.0655702
20
348.675818
40
2.1234015
50
221.5949283
51
262.3505042
0
ARC
8
bottom_labelLayer
10
453.2436395
20
349.5915249
40
3.0551506
50
261.3266322
51
270.1912873
0
ARC
8
bottom_labelLayer
10
459.5542464
20
352.4052341
40
11.8067948
50
349.1761873
51
0.386259
0
ARC
8
bottom_labelLayer
10
463.529315
20
351.612796
40
7.7536996
50
330.2507057
51
349.4116448
0
ARC
8
bottom_labelLayer
10
464.7526307
20
350.976967
40
6.376346
50
318.1439841
51
329.7566087
0
ARC
8
bottom_labelLayer
10
464.9734336
20
350.8000157
40
6.0938339
50
278.8959174
51
317.9979142
0
ARC
8
bottom_labelLayer
10
464.4045334
20
353.5256629
40
8.8757817
50
269.7502935
51
279.8033291
0
ARC
8
bottom_labelLayer
10
464.31227
20
351.9899279
40
7.3401579
50
253.5436914
51
270.418247
0
ARC
8
bottom_labelLayer
10
464.067933
20
351.044769
40
6.3645874
50
238.8115611
51
253.2428288
0
ARC
8
bottom_labelLayer
10
463.9890728
20
350.8861824
40
6.1881007
50
207.7947003
51
238.6758017
0
ARC
8
bottom_labelLayer
10
465.120626
20
351.5792
40
7.5127429
50
205.6559991
51
208.446103
0
ARC
8
bottom_labelLayer
10
465.9921794
20
351.9423484
40
8.4557489
50
188.9102523
51
205.3171427
0
ARC
8
bottom_labelLayer
10
468.9294271
20
352.4398207
40
11.4346607
50
179.7744761
51
189.0932785
0
ARC
8
bottom_labelLayer
10
469.3626947
20
352.5652137
40
11.868112
50
169.2442969
51
180.3880774
0
ARC
8
bottom_labelLayer
10
465.3323775
20
353.361861
40
7.7599882
50
150.7111487
51
169.4695415
0
ARC
8
bottom_labelLayer
10
464.0457859
20
354.0225708
40
6.3148649
50
138.1759583
51
150.228728
0
ARC
8
bottom_labelLayer
10
463.831758
20
354.1868112
40
6.0458834
50
99.1759391
51
137.9832747
0
ARC
8
bottom_labelLayer
10
464.4208104
20
351.4146639
40
8.8775858
50
89.7326274
51
100.0759805
0
ARC
8
bottom_labelLayer
10
464.5385428
20
352.6118565
40
7.6806757
50
73.5222778
51
90.5692242
0
ARC
8
bottom_labelLayer
10
464.9889689
20
354.2483764
40
5.9836945
50
41.1445618
51
73.2133816
0
ARC
8
bottom_labelLayer
10
464.129139
20
353.5093648
40
7.117438
50
13.5014421
51
41.0703355
0
ARC
8
bottom_labelLayer
10
460.8072159
20
352.6400618
40
10.5507429
50
1.1277169
51
13.8800054
0
ARC
8
bottom_labelLayer
10
457.9455737
20
352.4867255
40
13.4151993
50
359.9919
51
1.5419455
0
ARC
8
bottom_labelLayer
10
471.4380333
20
352.4254287
40
11.5749713
50
179.7059693
51
187.9160723
0
ARC
8
bottom_labelLayer
10
467.192687
20
351.8155911
40
7.2861169
50
187.763932
51
200.0976863
0
ARC
8
bottom_labelLayer
10
464.8539451
20
350.9586735
40
4.79533
50
200.0845956
51
216.9131696
0
ARC
8
bottom_labelLayer
10
463.9999221
20
350.3488601
40
3.7463284
50
217.3009548
51
261.7099061
0
ARC
8
bottom_labelLayer
10
464.3963904
20
352.2407742
40
5.6768967
50
260.503327
51
270.2476665
0
ARC
8
bottom_labelLayer
10
464.4720624
20
351.8728799
40
5.3091957
50
269.4481723
51
284.7255678
0
ARC
8
bottom_labelLayer
10
464.8923601
20
350.3141297
40
3.6948226
50
284.5662365
51
322.6333811
0
ARC
8
bottom_labelLayer
10
463.9096784
20
351.0240721
40
4.9068055
50
323.0089383
51
342.6390379
0
ARC
8
bottom_labelLayer
10
461.0990175
20
351.9426755
40
7.8636184
50
342.3615739
51
353.7537633
0
ARC
8
bottom_labelLayer
10
456.9523378
20
352.442503
40
12.0401501
50
353.5363129
51
0.2014179
0
ARC
8
bottom_labelLayer
10
457.5876678
20
352.5430387
40
11.4048944
50
359.707565
51
7.8972647
0
ARC
8
bottom_labelLayer
10
461.764459
20
353.1418189
40
7.1854706
50
7.7439939
51
20.0690126
0
ARC
8
bottom_labelLayer
10
464.0919328
20
353.9959126
40
4.7062386
50
20.0257152
51
37.4350527
0
ARC
8
bottom_labelLayer
10
464.864171
20
354.5438814
40
3.7601158
50
37.9577669
51
80.4006213
0
ARC
8
bottom_labelLayer
10
464.4253347
20
352.5858469
40
5.7648909
50
79.3453294
51
90.3174903
0
ARC
8
bottom_labelLayer
10
464.3440782
20
352.911063
40
5.4398098
50
89.4806054
51
103.8804903
0
ARC
8
bottom_labelLayer
10
463.8869936
20
354.6516458
40
3.6404957
50
103.4685255
51
142.3118949
0
ARC
8
bottom_labelLayer
10
464.7755973
20
354.0267151
40
4.7260033
50
142.9025635
51
162.3749659
0
ARC
8
bottom_labelLayer
10
467.5756132
20
353.0936173
40
7.6772234
50
162.0653194
51
173.1674771
0
ARC
8
bottom_labelLayer
10
471.9415486
20
352.5367702
40
12.0784457
50
173.0086237
51
180.2463914
0
LINE
8
bottom_labelLayer
10
496.8894839
20
344.9253563
11
494.6037417
21
344.9253563
0
LINE
8
bottom_labelLayer
10
494.6037417
20
344.9253563
11
494.6037417
21
354.7430321
0
LINE
8
bottom_labelLayer
10
487.2645816
20
353.3523094
11
487.2645816
21
344.9253563
0
LINE
8
bottom_labelLayer
10
487.2645816
20
344.9253563
11
484.9788394
21
344.9253563
0
LINE
8
bottom_labelLayer
10
484.9788394
20
344.9253563
11
484.9788394
21
354.7430321
0
LINE
8
bottom_labelLayer
10
477.6534487
20
352.8428367
11
477.6534487
21
344.9253563
0
LINE
8
bottom_labelLayer
10
477.6534487
20
344.9253563
11
475.3677066
21
344.9253563
0
LINE
8
bottom_labelLayer
10
475.3677066
20
344.9253563
11
475.3677066
21
360.0167625
0
LINE
8
bottom_labelLayer
10
475.3677066
20
360.0167625
11
477.2265933
21
360.0167625
0
LINE
8
bottom_labelLayer
10
477.2265933
20
360.0167625
11
477.5983706
21
357.9513328
0
LINE
8
bottom_labelLayer
10
477.5983706
20
357.9513328
11
477.7085269
21
357.9513328
0
LINE
8
bottom_labelLayer
10
486.7964175
20
357.7310203
11
486.9065737
21
357.7310203
0
LINE
8
bottom_labelLayer
10
496.8894839
20
354.7705711
11
496.8894839
21
344.9253563
0
ARC
8
bottom_labelLayer
10
487.8607427
20
354.7789484
40
6.7430947
50
359.6948188
51
8.1471684
0
ARC
8
bottom_labelLayer
10
490.3444234
20
355.1465082
40
4.2324085
50
7.9864486
51
20.7949576
0
ARC
8
bottom_labelLayer
10
491.7173384
20
355.6724211
40
2.7622204
50
20.7071207
51
40.0217433
0
ARC
8
bottom_labelLayer
10
492.0185288
20
355.8694851
40
2.4052214
50
41.0408116
51
73.1792624
0
ARC
8
bottom_labelLayer
10
491.5827117
20
354.5513486
40
3.7932455
50
72.6395566
51
86.2567987
0
ARC
8
bottom_labelLayer
10
491.4430981
20
353.0448695
40
5.3057836
50
85.8144167
51
90.0685568
0
ARC
8
bottom_labelLayer
10
491.391801
20
352.4692481
40
5.8815729
50
89.5621261
51
101.2961648
0
ARC
8
bottom_labelLayer
10
490.9488211
20
354.5899491
40
3.7152319
50
101.0032351
51
121.7840357
0
ARC
8
bottom_labelLayer
10
490.612043
20
355.1911941
40
3.0269152
50
122.3597153
51
140.2884137
0
ARC
8
bottom_labelLayer
10
491.2179369
20
354.7469311
40
3.7771338
50
140.9765223
51
161.1699618
0
ARC
8
bottom_labelLayer
10
493.5004876
20
353.9346214
40
6.1997887
50
160.8731727
51
172.5272394
0
ARC
8
bottom_labelLayer
10
497.3145517
20
353.4078715
40
10.0499996
50
172.3776507
51
180.1829678
0
ARC
8
bottom_labelLayer
10
499.998614
20
353.3523235
40
12.7340324
50
179.8944684
51
180.0000636
0
ARC
8
bottom_labelLayer
10
478.2358403
20
354.7789484
40
6.7430947
50
359.6948188
51
8.1471684
0
ARC
8
bottom_labelLayer
10
480.719521
20
355.1465082
40
4.2324085
50
7.9864486
51
20.7949576
0
ARC
8
bottom_labelLayer
10
482.0924361
20
355.6724211
40
2.7622204
50
20.7071207
51
40.0217433
0
ARC
8
bottom_labelLayer
10
482.3998885
20
355.8738116
40
2.3976577
50
41.0610858
51
72.8993516
0
ARC
8
bottom_labelLayer
10
481.955817
20
354.5517642
40
3.7920047
50
72.3600908
51
85.956185
0
ARC
8
bottom_labelLayer
10
481.8054904
20
352.998126
40
5.3525283
50
85.5238198
51
90.0793497
0
ARC
8
bottom_labelLayer
10
481.7542167
20
352.6736882
40
5.6771305
50
89.5573343
51
101.4832193
0
ARC
8
bottom_labelLayer
10
481.3184769
20
354.7152256
40
3.5897701
50
101.1546397
51
123.0655722
0
ARC
8
bottom_labelLayer
10
481.0222852
20
355.2311781
40
2.9959611
50
123.7020508
51
142.3022047
0
ARC
8
bottom_labelLayer
10
481.7160957
20
354.7604881
40
3.8331124
50
143.0769717
51
161.3913832
0
ARC
8
bottom_labelLayer
10
484.512814
20
353.7727516
40
6.7989481
50
161.023451
51
171.4469034
0
ARC
8
bottom_labelLayer
10
489.1427261
20
353.0474922
40
11.4852689
50
171.3042
51
178.3501514
0
ARC
8
bottom_labelLayer
10
493.5672136
20
352.849875
40
15.9137665
50
178.0975885
51
180.0253404
0
ARC
8
bottom_labelLayer
10
481.5808839
20
355.6741956
40
4.4922714
50
117.1209591
51
149.5423684
0
ARC
8
bottom_labelLayer
10
482.0393576
20
354.8593164
40
5.4266795
50
93.8343271
51
117.5072154
0
ARC
8
bottom_labelLayer
10
482.1659906
20
353.7376786
40
6.5544758
50
89.9662196
51
94.2831513
0
ARC
8
bottom_labelLayer
10
482.2418613
20
352.8089681
40
7.4835315
50
77.5572265
51
90.551307
0
ARC
8
bottom_labelLayer
10
482.9362509
20
355.7956663
40
4.4175045
50
52.7027009
51
78.0053812
0
ARC
8
bottom_labelLayer
10
483.1836496
20
356.2559571
40
3.9022947
50
22.2097876
51
51.4970632
0
ARC
8
bottom_labelLayer
10
491.0472949
20
355.3579644
40
4.772522
50
119.4041751
51
150.1828878
0
ARC
8
bottom_labelLayer
10
491.5764305
20
354.5533432
40
5.7336575
50
118.2582859
51
120.063007
0
ARC
8
bottom_labelLayer
10
491.5750841
20
354.4942219
40
5.7851691
50
95.8635167
51
117.9693207
0
ARC
8
bottom_labelLayer
10
491.7708751
20
353.0785268
40
7.2136335
50
89.9196774
51
96.2617708
0
ARC
8
bottom_labelLayer
10
491.8337336
20
352.3469636
40
7.9453646
50
79.9360939
51
90.3803644
0
ARC
8
bottom_labelLayer
10
492.3631465
20
355.2141955
40
5.0297773
50
62.9723323
51
80.1665222
0
ARC
8
bottom_labelLayer
10
492.9165776
20
356.3496237
40
3.7669318
50
44.2289832
51
62.6229096
0
ARC
8
bottom_labelLayer
10
492.7519738
20
356.276905
40
3.9361029
50
19.5612045
51
43.3161292
0
ARC
8
bottom_labelLayer
10
490.3614043
20
355.3790051
40
6.489489
50
7.5041825
51
19.9645335
0
ARC
8
bottom_labelLayer
10
486.4056596
20
354.8234987
40
10.4839581
50
359.710745
51
7.6907287
0
ENDSEC
0
EOF